<?xml version="1.0" encoding="UTF-8"?>
<svg width="824px" height="239px" viewBox="0 0 824 239" version="1.1" xmlns="http://www.w3.org/2000/svg" xmlns:xlink="http://www.w3.org/1999/xlink">
    <!-- Generator: Sketch 55.2 (78181) - https://sketchapp.com -->
    <title>Primary-OneTrust-OnWhiteBackground_1000px</title>
    <desc>Created with Sketch.</desc>
    <defs>
        <polygon id="path-1" points="0.873 0.382 35.712 0.382 35.712 34.94 0.873 34.94"></polygon>
        <polygon id="path-3" points="0.06 0.273 817.753 0.273 817.753 233.705 0.06 233.705"></polygon>
    </defs>
    <g id="Primary-OneTrust-OnWhiteBackground_1000px" stroke="none" stroke-width="1" fill="none" fill-rule="evenodd">
        <path d="M15.058,218.181 L17.105,218.181 C19.016,218.181 20.447,217.803 21.397,217.047 C22.346,216.292 22.821,215.193 22.821,213.747 C22.821,212.291 22.423,211.214 21.628,210.519 C20.832,209.825 19.585,209.477 17.887,209.477 L15.058,209.477 L15.058,218.181 Z M29.098,213.528 C29.098,216.683 28.112,219.097 26.14,220.769 C24.168,222.44 21.363,223.276 17.726,223.276 L15.058,223.276 L15.058,233.705 L8.84,233.705 L8.84,204.382 L18.208,204.382 C21.764,204.382 24.468,205.148 26.32,206.678 C28.172,208.209 29.098,210.493 29.098,213.528 L29.098,213.528 Z" id="Fill-1" fill="#83827F"></path>
        <path d="M40.852,217.399 L42.858,217.399 C44.824,217.399 46.275,217.071 47.211,216.416 C48.147,215.76 48.615,214.731 48.615,213.327 C48.615,211.937 48.137,210.947 47.181,210.359 C46.224,209.771 44.744,209.477 42.738,209.477 L40.852,209.477 L40.852,217.399 Z M40.852,222.454 L40.852,233.705 L34.634,233.705 L34.634,204.382 L43.179,204.382 C47.164,204.382 50.112,205.107 52.025,206.557 C53.937,208.009 54.892,210.211 54.892,213.167 C54.892,214.891 54.418,216.426 53.469,217.77 C52.519,219.114 51.175,220.166 49.437,220.929 C53.85,227.521 56.724,231.78 58.062,233.705 L51.162,233.705 L44.162,222.454 L40.852,222.454 L40.852,222.454 Z" id="Fill-2" fill="#83827F"></path>
        <polygon id="Fill-3" fill="#83827F" points="61.752 233.705 67.97 233.705 67.97 204.382 61.752 204.382"></polygon>
        <path d="M92.079,204.382 L98.357,204.382 L88.388,233.705 L81.609,233.705 L71.66,204.382 L77.939,204.382 L83.454,221.831 C83.761,222.862 84.079,224.062 84.407,225.432 C84.734,226.802 84.938,227.755 85.019,228.29 C85.166,227.06 85.667,224.907 86.523,221.831 L92.079,204.382" id="Fill-4" fill="#83827F"></path>
        <path d="M116.388,221.511 C114.423,215.186 113.317,211.609 113.069,210.78 C112.821,209.951 112.645,209.296 112.537,208.815 C112.096,210.526 110.833,214.759 108.747,221.511 L116.388,221.511 Z M119.999,233.705 L117.873,226.726 L107.182,226.726 L105.056,233.705 L98.357,233.705 L108.707,204.262 L116.308,204.262 L126.698,233.705 L119.999,233.705 L119.999,233.705 Z" id="Fill-5" fill="#83827F"></path>
        <path d="M142.844,209.136 C140.504,209.136 138.693,210.015 137.408,211.772 C136.125,213.531 135.483,215.982 135.483,219.123 C135.483,225.662 137.937,228.931 142.844,228.931 C144.903,228.931 147.397,228.417 150.326,227.387 L150.326,232.602 C147.919,233.606 145.231,234.107 142.263,234.107 C137.997,234.107 134.734,232.813 132.475,230.225 C130.214,227.638 129.085,223.925 129.085,219.083 C129.085,216.036 129.639,213.364 130.75,211.071 C131.859,208.778 133.454,207.019 135.533,205.795 C137.612,204.573 140.049,203.96 142.844,203.96 C145.692,203.96 148.553,204.649 151.429,206.027 L149.423,211.081 C148.326,210.56 147.223,210.105 146.113,209.716 C145.004,209.329 143.914,209.136 142.844,209.136" id="Fill-6" fill="#83827F"></path>
        <g id="Group-10" transform="translate(152.000000, 204.000000)">
            <mask id="mask-2" fill="white">
                <use xlink:href="#path-1"></use>
            </mask>
            <g id="Clip-8"></g>
            <polyline id="Fill-7" fill="#83827F" mask="url(#mask-2)" points="13.689 12.456 19.807 0.382 26.506 0.382 16.778 18.292 16.778 29.705 10.601 29.705 10.601 18.493 0.873 0.382 7.612 0.382 13.689 12.456"></polyline>
            <path d="M35.712,25.393 C35.017,28.094 33.84,31.296 32.182,35 L27.77,35 C28.639,31.444 29.314,28.088 29.796,24.931 L35.411,24.931 L35.712,25.393" id="Fill-9" fill="#83827F" mask="url(#mask-2)"></path>
        </g>
        <path d="M222.09,225.562 C222.09,228.21 221.138,230.295 219.233,231.821 C217.327,233.344 214.676,234.107 211.279,234.107 C208.151,234.107 205.382,233.518 202.976,232.342 L202.976,226.565 C204.955,227.447 206.629,228.07 208,228.43 C209.371,228.792 210.624,228.972 211.761,228.972 C213.125,228.972 214.171,228.71 214.9,228.189 C215.629,227.668 215.993,226.893 215.993,225.864 C215.993,225.288 215.833,224.777 215.511,224.329 C215.191,223.881 214.719,223.45 214.097,223.035 C213.476,222.621 212.209,221.958 210.297,221.049 C208.505,220.206 207.161,219.399 206.265,218.621 C205.369,217.847 204.653,216.945 204.119,215.914 C203.584,214.885 203.317,213.682 203.317,212.304 C203.317,209.711 204.196,207.67 205.954,206.186 C207.712,204.703 210.143,203.96 213.245,203.96 C214.769,203.96 216.224,204.141 217.608,204.501 C218.991,204.863 220.439,205.371 221.95,206.027 L219.944,210.86 C218.38,210.219 217.086,209.771 216.063,209.516 C215.04,209.262 214.034,209.136 213.045,209.136 C211.868,209.136 210.965,209.41 210.337,209.957 C209.708,210.506 209.394,211.221 209.394,212.104 C209.394,212.652 209.521,213.13 209.775,213.537 C210.029,213.946 210.434,214.34 210.988,214.722 C211.543,215.102 212.857,215.788 214.93,216.778 C217.671,218.087 219.549,219.401 220.566,220.718 C221.582,222.036 222.09,223.65 222.09,225.562" id="Fill-11" fill="#83827F"></path>
        <polyline id="Fill-12" fill="#83827F" points="244.294 233.705 227.405 233.705 227.405 204.382 244.294 204.382 244.294 209.477 233.623 209.477 233.623 215.914 243.551 215.914 243.551 221.009 233.623 221.009 233.623 228.571 244.294 228.571 244.294 233.705"></polyline>
        <path d="M262.867,209.136 C260.526,209.136 258.715,210.015 257.431,211.772 C256.148,213.531 255.506,215.982 255.506,219.123 C255.506,225.662 257.959,228.931 262.867,228.931 C264.926,228.931 267.42,228.417 270.348,227.387 L270.348,232.602 C267.942,233.606 265.254,234.107 262.285,234.107 C258.02,234.107 254.757,232.813 252.497,230.225 C250.237,227.638 249.107,223.925 249.107,219.083 C249.107,216.036 249.662,213.364 250.772,211.071 C251.882,208.778 253.476,207.019 255.556,205.795 C257.635,204.573 260.072,203.96 262.867,203.96 C265.715,203.96 268.576,204.649 271.451,206.027 L269.446,211.081 C268.349,210.56 267.246,210.105 266.136,209.716 C265.026,209.329 263.936,209.136 262.867,209.136" id="Fill-13" fill="#83827F"></path>
        <path d="M300.454,204.382 L300.454,223.356 C300.454,225.523 299.969,227.421 299,229.052 C298.03,230.684 296.63,231.934 294.798,232.803 C292.966,233.672 290.8,234.107 288.299,234.107 C284.528,234.107 281.6,233.141 279.514,231.208 C277.429,229.277 276.385,226.632 276.385,223.276 L276.385,204.382 L282.583,204.382 L282.583,222.333 C282.583,224.593 283.038,226.25 283.947,227.307 C284.856,228.363 286.36,228.892 288.46,228.892 C290.492,228.892 291.966,228.361 292.882,227.297 C293.798,226.235 294.256,224.566 294.256,222.292 L294.256,204.382 L300.454,204.382" id="Fill-14" fill="#83827F"></path>
        <path d="M313.852,217.399 L315.858,217.399 C317.824,217.399 319.275,217.071 320.211,216.416 C321.147,215.76 321.615,214.731 321.615,213.327 C321.615,211.937 321.137,210.947 320.181,210.359 C319.224,209.771 317.744,209.477 315.738,209.477 L313.852,209.477 L313.852,217.399 Z M313.852,222.454 L313.852,233.705 L307.634,233.705 L307.634,204.382 L316.179,204.382 C320.164,204.382 323.112,205.107 325.025,206.557 C326.937,208.009 327.892,210.211 327.892,213.167 C327.892,214.891 327.418,216.426 326.469,217.77 C325.519,219.114 324.175,220.166 322.437,220.929 C326.85,227.521 329.724,231.78 331.062,233.705 L324.162,233.705 L317.162,222.454 L313.852,222.454 L313.852,222.454 Z" id="Fill-15" fill="#83827F"></path>
        <polygon id="Fill-16" fill="#83827F" points="334.752 233.705 340.97 233.705 340.97 204.382 334.752 204.382"></polygon>
        <polyline id="Fill-17" fill="#83827F" points="359.664 233.705 353.446 233.705 353.446 209.557 345.483 209.557 345.483 204.382 367.626 204.382 367.626 209.557 359.664 209.557 359.664 233.705"></polyline>
        <polyline id="Fill-18" fill="#83827F" points="381.265 216.456 387.382 204.382 394.082 204.382 384.354 222.292 384.354 233.705 378.176 233.705 378.176 222.493 368.449 204.382 375.188 204.382 381.265 216.456"></polyline>
        <path d="M420.036,210.981 C420.036,210.272 419.796,209.713 419.314,209.305 C418.833,208.898 418.212,208.694 417.449,208.694 C416.552,208.694 415.847,208.909 415.333,209.335 C414.818,209.764 414.56,210.371 414.56,211.162 C414.56,212.338 415.196,213.635 416.465,215.052 C417.616,214.411 418.498,213.778 419.114,213.157 C419.728,212.536 420.036,211.809 420.036,210.981 Z M412.836,225.202 C412.836,226.351 413.267,227.267 414.129,227.949 C414.992,228.631 416.098,228.972 417.449,228.972 C419.133,228.972 420.651,228.565 422.003,227.748 L415.342,221.129 C414.567,221.717 413.955,222.333 413.507,222.974 C413.059,223.617 412.836,224.359 412.836,225.202 Z M435.56,233.705 L427.999,233.705 L425.691,231.439 C423.138,233.217 420.25,234.107 417.027,234.107 C413.765,234.107 411.177,233.358 409.265,231.86 C407.353,230.363 406.397,228.337 406.397,225.783 C406.397,223.951 406.802,222.39 407.61,221.099 C408.42,219.809 409.807,218.602 411.773,217.479 C410.77,216.329 410.041,215.23 409.587,214.179 C409.131,213.13 408.904,211.983 408.904,210.741 C408.904,208.706 409.683,207.07 411.241,205.826 C412.798,204.581 414.881,203.96 417.489,203.96 C419.975,203.96 421.965,204.538 423.456,205.695 C424.947,206.852 425.691,208.4 425.691,210.339 C425.691,211.93 425.231,213.384 424.308,214.701 C423.385,216.018 421.894,217.272 419.836,218.462 L425.532,224.018 C426.481,222.454 427.303,220.441 427.999,217.981 L434.378,217.981 C433.895,219.786 433.234,221.548 432.391,223.265 C431.548,224.985 430.593,226.504 429.523,227.829 L435.56,233.705 L435.56,233.705 Z" id="Fill-19" fill="#83827F"></path>
        <polyline id="Fill-20" fill="#83827F" points="461.233 233.705 455.017 233.705 455.017 209.557 447.054 209.557 447.054 204.382 469.196 204.382 469.196 209.557 461.233 209.557 461.233 233.705"></polyline>
        <polyline id="Fill-21" fill="#83827F" points="497.738 233.705 491.541 233.705 491.541 221.049 479.927 221.049 479.927 233.705 473.71 233.705 473.71 204.382 479.927 204.382 479.927 215.874 491.541 215.874 491.541 204.382 497.738 204.382 497.738 233.705"></polyline>
        <polygon id="Fill-22" fill="#83827F" points="505.139 233.705 511.357 233.705 511.357 204.382 505.139 204.382"></polygon>
        <path d="M524.956,217.399 L526.962,217.399 C528.927,217.399 530.379,217.071 531.314,216.416 C532.251,215.76 532.718,214.731 532.718,213.327 C532.718,211.937 532.241,210.947 531.285,210.359 C530.328,209.771 528.847,209.477 526.841,209.477 L524.956,209.477 L524.956,217.399 Z M524.956,222.454 L524.956,233.705 L518.739,233.705 L518.739,204.382 L527.284,204.382 C531.267,204.382 534.216,205.107 536.129,206.557 C538.04,208.009 538.996,210.211 538.996,213.167 C538.996,214.891 538.521,216.426 537.572,217.77 C536.624,219.114 535.279,220.166 533.541,220.929 C537.953,227.521 540.827,231.78 542.166,233.705 L535.265,233.705 L528.265,222.454 L524.956,222.454 L524.956,222.454 Z" id="Fill-23" fill="#83827F"></path>
        <path d="M563.727,218.923 C563.727,212.625 560.945,209.477 555.382,209.477 L552.073,209.477 L552.073,228.571 L554.741,228.571 C560.731,228.571 563.727,225.356 563.727,218.923 Z M570.185,218.763 C570.185,223.59 568.811,227.287 566.063,229.854 C563.316,232.422 559.347,233.705 554.16,233.705 L545.855,233.705 L545.855,204.382 L555.062,204.382 C559.848,204.382 563.566,205.645 566.214,208.172 C568.861,210.7 570.185,214.23 570.185,218.763 L570.185,218.763 Z" id="Fill-24" fill="#83827F"></path>
        <polygon id="Fill-25" fill="#83827F" points="573.796 225.202 584.566 225.202 584.566 220.187 573.796 220.187"></polygon>
        <path d="M595.699,218.181 L597.744,218.181 C599.657,218.181 601.088,217.803 602.036,217.047 C602.986,216.292 603.461,215.193 603.461,213.747 C603.461,212.291 603.063,211.214 602.267,210.519 C601.471,209.825 600.224,209.477 598.526,209.477 L595.699,209.477 L595.699,218.181 Z M609.739,213.528 C609.739,216.683 608.752,219.097 606.78,220.769 C604.806,222.44 602.004,223.276 598.365,223.276 L595.699,223.276 L595.699,233.705 L589.479,233.705 L589.479,204.382 L598.847,204.382 C602.404,204.382 605.108,205.148 606.961,206.678 C608.812,208.209 609.739,210.493 609.739,213.528 L609.739,213.528 Z" id="Fill-26" fill="#83827F"></path>
        <path d="M629.615,221.511 C627.65,215.186 626.543,211.609 626.296,210.78 C626.048,209.951 625.872,209.296 625.763,208.815 C625.323,210.526 624.059,214.759 621.973,221.511 L629.615,221.511 Z M633.225,233.705 L631.099,226.726 L620.41,226.726 L618.283,233.705 L611.585,233.705 L621.933,204.262 L629.535,204.262 L639.924,233.705 L633.225,233.705 L633.225,233.705 Z" id="Fill-27" fill="#83827F"></path>
        <path d="M649.833,217.399 L651.838,217.399 C653.804,217.399 655.255,217.071 656.191,216.416 C657.128,215.76 657.595,214.731 657.595,213.327 C657.595,211.937 657.118,210.947 656.162,210.359 C655.205,209.771 653.724,209.477 651.718,209.477 L649.833,209.477 L649.833,217.399 Z M649.833,222.454 L649.833,233.705 L643.616,233.705 L643.616,204.382 L652.161,204.382 C656.144,204.382 659.093,205.107 661.005,206.557 C662.917,208.009 663.873,210.211 663.873,213.167 C663.873,214.891 663.398,216.426 662.449,217.77 C661.501,219.114 660.156,220.166 658.418,220.929 C662.83,227.521 665.704,231.78 667.043,233.705 L660.142,233.705 L653.142,222.454 L649.833,222.454 L649.833,222.454 Z" id="Fill-28" fill="#83827F"></path>
        <polyline id="Fill-29" fill="#83827F" points="682.045 233.705 675.828 233.705 675.828 209.557 667.865 209.557 667.865 204.382 690.007 204.382 690.007 209.557 682.045 209.557 682.045 233.705"></polyline>
        <polyline id="Fill-30" fill="#83827F" points="703.646 216.456 709.764 204.382 716.464 204.382 706.736 222.292 706.736 233.705 700.557 233.705 700.557 222.493 690.831 204.382 697.57 204.382 703.646 216.456"></polyline>
        <path d="M737.042,217.399 L739.047,217.399 C741.013,217.399 742.464,217.071 743.401,216.416 C744.336,215.76 744.804,214.731 744.804,213.327 C744.804,211.937 744.327,210.947 743.371,210.359 C742.414,209.771 740.934,209.477 738.928,209.477 L737.042,209.477 L737.042,217.399 Z M737.042,222.454 L737.042,233.705 L730.824,233.705 L730.824,204.382 L739.369,204.382 C743.354,204.382 746.302,205.107 748.215,206.557 C750.126,208.009 751.083,210.211 751.083,213.167 C751.083,214.891 750.608,216.426 749.659,217.77 C748.709,219.114 747.365,220.166 745.628,220.929 C750.04,227.521 752.914,231.78 754.251,233.705 L747.352,233.705 L740.352,222.454 L737.042,222.454 L737.042,222.454 Z" id="Fill-31" fill="#83827F"></path>
        <polygon id="Fill-32" fill="#83827F" points="757.942 233.705 764.159 233.705 764.159 204.382 757.942 204.382"></polygon>
        <path d="M788.85,225.562 C788.85,228.21 787.898,230.295 785.993,231.821 C784.087,233.344 781.436,234.107 778.039,234.107 C774.911,234.107 772.142,233.518 769.736,232.342 L769.736,226.565 C771.714,227.447 773.39,228.07 774.76,228.43 C776.13,228.792 777.384,228.972 778.521,228.972 C779.884,228.972 780.93,228.71 781.66,228.189 C782.389,227.668 782.753,226.893 782.753,225.864 C782.753,225.288 782.593,224.777 782.271,224.329 C781.951,223.881 781.48,223.45 780.857,223.035 C780.236,222.621 778.968,221.958 777.056,221.049 C775.264,220.206 773.921,219.399 773.026,218.621 C772.129,217.847 771.415,216.945 770.879,215.914 C770.344,214.885 770.077,213.682 770.077,212.304 C770.077,209.711 770.955,207.67 772.714,206.186 C774.472,204.703 776.903,203.96 780.005,203.96 C781.529,203.96 782.984,204.141 784.367,204.501 C785.752,204.863 787.198,205.371 788.71,206.027 L786.704,210.86 C785.139,210.219 783.845,209.771 782.823,209.516 C781.8,209.262 780.794,209.136 779.804,209.136 C778.628,209.136 777.726,209.41 777.097,209.957 C776.468,210.506 776.154,211.221 776.154,212.104 C776.154,212.652 776.281,213.13 776.535,213.537 C776.789,213.946 777.194,214.34 777.749,214.722 C778.303,215.102 779.617,215.788 781.69,216.778 C784.43,218.087 786.31,219.401 787.326,220.718 C788.341,222.036 788.85,223.65 788.85,225.562" id="Fill-33" fill="#83827F"></path>
        <g id="Group-37">
            <mask id="mask-4" fill="white">
                <use xlink:href="#path-3"></use>
            </mask>
            <g id="Clip-35"></g>
            <polyline id="Fill-34" fill="#83827F" mask="url(#mask-4)" points="817.753 233.705 810.693 233.705 803.011 221.35 800.382 223.236 800.382 233.705 794.166 233.705 794.166 204.382 800.382 204.382 800.382 217.8 802.832 214.351 810.773 204.382 817.673 204.382 807.443 217.358 817.753 233.705"></polyline>
            <path d="M64.672,127.293 C50.171,127.293 38.988,122.644 31.432,113.474 C23.801,104.217 19.933,90.348 19.933,72.25 C19.933,54.404 23.802,40.66 31.432,31.402 C38.989,22.232 50.236,17.582 64.859,17.582 C79.413,17.582 90.531,22.197 97.903,31.298 C105.352,40.498 109.13,54.277 109.13,72.25 C109.13,90.411 105.336,104.3 97.857,113.531 C90.454,122.662 79.289,127.293 64.672,127.293 Z M64.859,0.273 C44.264,0.273 28.122,6.638 16.878,19.19 C5.678,31.694 0,49.483 0,72.064 C0,94.828 5.662,112.742 16.828,125.306 C28.039,137.924 44.136,144.322 64.672,144.322 C84.771,144.322 100.712,137.813 112.05,124.974 C123.338,112.192 129.062,94.452 129.062,72.25 C129.062,49.986 123.354,32.247 112.095,19.525 C100.789,6.75 84.896,0.273 64.859,0.273 L64.859,0.273 Z" id="Fill-36" fill="#6AB64B" mask="url(#mask-4)"></path>
        </g>
        <path d="M204.244,34.838 C196.989,34.838 190.303,36.292 184.372,39.16 C179.271,41.628 175.087,45.006 171.903,49.224 L169.651,36.712 L154.186,36.712 L154.186,142.449 L172.807,142.449 L172.807,87.051 C172.807,74.126 175.203,64.788 179.929,59.295 C184.596,53.869 192.147,51.118 202.37,51.118 C210.005,51.118 215.645,53.032 219.134,56.807 C222.655,60.617 224.441,66.57 224.441,74.499 L224.441,142.449 L243.061,142.449 L243.061,73.937 C243.061,60.449 239.75,50.448 233.219,44.209 C226.706,37.991 216.958,34.838 204.244,34.838" id="Fill-38" fill="#6AB64B"></path>
        <path d="M312.624,50.93 C320.335,50.93 326.078,53.309 330.181,58.202 C334.067,62.839 336.143,69.565 336.36,78.209 L285.949,78.209 C286.962,69.891 289.68,63.262 294.04,58.486 C298.68,53.402 304.759,50.93 312.624,50.93 Z M312.811,34.838 C298.66,34.838 287.218,39.94 278.801,50.002 C270.452,59.982 266.218,73.582 266.218,90.423 C266.218,107.179 270.788,120.487 279.801,129.979 C288.834,139.496 301.295,144.322 316.839,144.322 C323.845,144.322 329.924,143.791 334.906,142.744 C339.889,141.696 345.235,139.948 350.795,137.546 L351.722,137.146 L351.722,119.945 L349.583,120.86 C339.024,125.377 328.196,127.668 317.401,127.668 C307.403,127.668 299.573,124.683 294.126,118.794 C288.888,113.132 285.975,104.771 285.459,93.926 L356.125,93.926 L356.125,82.555 C356.125,68.371 352.213,56.761 344.498,48.049 C336.735,39.283 326.074,34.838 312.811,34.838 L312.811,34.838 Z" id="Fill-39" fill="#6AB64B"></path>
        <polyline id="Fill-40" fill="#6AB64B" points="364.763 19.643 408.133 19.643 408.133 142.449 427.129 142.449 427.129 19.643 470.499 19.643 470.499 2.428 364.763 2.428 364.763 19.643"></polyline>
        <path d="M534.067,34.838 C527.354,34.838 521.108,36.754 515.504,40.534 C510.776,43.723 506.594,48.1 503.041,53.574 L501.462,36.712 L485.695,36.712 L485.695,142.449 L504.316,142.449 L504.316,85.833 C504.316,76.208 507.167,68.071 512.788,61.646 C518.435,55.192 525.029,52.055 532.942,52.055 C536.062,52.055 539.734,52.516 543.852,53.424 L545.459,53.778 L548.072,36.288 L546.649,35.995 C542.94,35.227 538.707,34.838 534.067,34.838" id="Fill-41" fill="#6AB64B"></path>
        <path d="M633.229,92.204 C633.229,105.07 630.845,114.412 626.145,119.969 C621.509,125.452 613.977,128.23 603.758,128.23 C596.125,128.23 590.484,126.316 586.995,122.541 C583.474,118.733 581.69,112.781 581.69,104.849 L581.69,36.712 L562.88,36.712 L562.88,105.411 C562.88,118.839 566.176,128.793 572.676,134.997 C579.154,141.185 588.951,144.322 601.793,144.322 C609.228,144.322 615.959,142.916 621.794,140.145 C626.839,137.748 630.993,134.399 634.171,130.166 L636.175,142.449 L651.85,142.449 L651.85,36.712 L633.229,36.712 L633.229,92.204" id="Fill-42" fill="#6AB64B"></path>
        <path d="M718.952,81.116 C710.199,77.85 704.219,75.331 701.179,73.627 C698.269,71.999 696.15,70.287 694.88,68.538 C693.66,66.856 693.066,64.853 693.066,62.415 C693.066,58.895 694.666,56.197 697.957,54.168 C701.442,52.019 706.781,50.93 713.825,50.93 C721.951,50.93 731.177,53.034 741.249,57.184 L742.638,57.757 L749.387,42.313 L747.962,41.706 C737.265,37.149 726.159,34.838 714.95,34.838 C702.815,34.838 693.092,37.376 686.051,42.382 C678.847,47.504 675.195,54.591 675.195,63.445 C675.195,68.382 676.257,72.708 678.354,76.303 C680.433,79.867 683.621,83.079 687.829,85.851 C691.932,88.556 698.891,91.745 708.497,95.323 C718.351,99.119 725.033,102.424 728.354,105.146 C731.474,107.705 732.991,110.672 732.991,114.216 C732.991,118.985 731.092,122.429 727.187,124.745 C723.076,127.183 717.036,128.418 709.235,128.418 C704.138,128.418 698.766,127.709 693.267,126.31 C687.751,124.909 682.514,122.963 677.706,120.527 L675.476,119.399 L675.476,137.219 L676.255,137.66 C684.072,142.08 695.041,144.322 708.86,144.322 C721.998,144.322 732.387,141.607 739.739,136.253 C747.244,130.788 751.05,122.934 751.05,112.905 C751.05,105.723 748.749,99.663 744.211,94.891 C739.726,90.179 731.46,85.671 718.952,81.116" id="Fill-43" fill="#6AB64B"></path>
        <path d="M821.587,126.606 C820.152,127.025 818.168,127.436 815.686,127.828 C813.224,128.219 810.628,128.418 807.966,128.418 C803.261,128.418 799.684,126.963 797.031,123.969 C794.366,120.966 793.015,116.519 793.015,110.75 L793.015,51.867 L822.803,51.867 L822.803,36.712 L793.015,36.712 L793.015,12.919 L781.343,12.919 L774.662,35.254 L759.688,41.835 L759.688,51.867 L774.394,51.867 L774.394,111.406 C774.394,133.248 784.933,144.322 805.717,144.322 C808.4,144.322 811.461,144.048 814.815,143.506 C818.278,142.945 820.852,142.243 822.683,141.36 L823.552,140.941 L823.552,126.033 L821.587,126.606" id="Fill-44" fill="#6AB64B"></path>
    </g>
</svg>