<svg id="onetrust_logo" data-name="onetrust logo" xmlns="http://www.w3.org/2000/svg" width="244" height="86" viewBox="0 0 244 86">
  <rect id="Retângulo_261" data-name="Retângulo 261" width="244" height="86" fill="#6eb935"/>
  <g id="Grupo_617" data-name="Grupo 617" transform="translate(24 14)">
    <path id="Caminho_1663" data-name="Caminho 1663" d="M-9.418,389.364a2.522,2.522,0,0,1-.935,2.126,4.208,4.208,0,0,1-2.721.737h-1.077v3.6H-15.2V386.7h2.381c2.268,0,3.4.879,3.4,2.664m-4.734,1.956h.964a3.508,3.508,0,0,0,2.041-.454,1.687,1.687,0,0,0,.624-1.474,1.627,1.627,0,0,0-.6-1.361,3.2,3.2,0,0,0-1.842-.454h-1.19Z" transform="translate(18.913 -340.186)" fill="#fff"/>
    <path id="Caminho_1664" data-name="Caminho 1664" d="M-14.4,395.682h-1.3V386.3h2.494c2.353,0,3.543.935,3.543,2.778a2.743,2.743,0,0,1-.992,2.239,4.436,4.436,0,0,1-2.778.765H-14.4Zm-1.049-.255h.822v-3.6h1.19a4.357,4.357,0,0,0,2.636-.709,2.487,2.487,0,0,0,.907-2.041c0-1.7-1.077-2.551-3.316-2.551h-2.239Zm1.9-4.252h-1.077v-3.968h1.3a3.512,3.512,0,0,1,1.927.454,1.682,1.682,0,0,1,.652,1.446,1.777,1.777,0,0,1-.68,1.559,3.557,3.557,0,0,1-2.126.51m-.85-.255h.822a3.556,3.556,0,0,0,1.984-.425,1.557,1.557,0,0,0,.6-1.361,1.411,1.411,0,0,0-.539-1.247,2.955,2.955,0,0,0-1.786-.425H-14.4Z" transform="translate(19.271 -339.9)" fill="#fff"/>
    <path id="Caminho_1665" data-name="Caminho 1665" d="M16.118,394.3a3.662,3.662,0,0,1,.822.085l-.142.964a3.919,3.919,0,0,0-.737-.085,1.8,1.8,0,0,0-1.417.68,2.466,2.466,0,0,0-.6,1.672V401.3H13v-6.859h.85l.113,1.276h.057a2.93,2.93,0,0,1,.907-1.02,1.883,1.883,0,0,1,1.19-.4" transform="translate(-1.294 -345.632)" fill="#fff"/>
    <path id="Caminho_1666" data-name="Caminho 1666" d="M13.876,401.128H12.6v-7.086h1.077l.113,1.077a3.146,3.146,0,0,1,.794-.822,2.174,2.174,0,0,1,1.247-.4,3.927,3.927,0,0,1,.85.085l.113.028-.17,1.19-.113-.028a3.68,3.68,0,0,0-.737-.085,1.7,1.7,0,0,0-1.332.624,2.387,2.387,0,0,0-.567,1.616Zm-1.049-.255h.794V397.33a2.473,2.473,0,0,1,.624-1.757,1.944,1.944,0,0,1,1.5-.709,6.1,6.1,0,0,1,.652.057l.113-.709a4.707,4.707,0,0,0-.68-.057,1.954,1.954,0,0,0-1.105.34,3.028,3.028,0,0,0-.879.992l-.028.057h-.255l-.113-1.276h-.624Z" transform="translate(-1.007 -345.345)" fill="#fff"/>
    <path id="Caminho_1667" data-name="Caminho 1667" d="M32.7,386.48a.693.693,0,0,1,.17-.51.616.616,0,0,1,.85,0,.85.85,0,0,1,0,1.02.617.617,0,0,1-.85,0,.693.693,0,0,1-.17-.51m1.105,8.7h-1.02v-6.859h1.049v6.859Z" transform="translate(-15.41 -339.541)" fill="#fff"/>
    <path id="Caminho_1668" data-name="Caminho 1668" d="M33.661,395.037H32.385v-7.086h1.276Zm-1.049-.255h.794v-6.6h-.794Zm.4-7.766a.683.683,0,0,1-.51-.2.8.8,0,0,1-.2-.6.962.962,0,0,1,.2-.624.755.755,0,0,1,1.02,0,.812.812,0,0,1,.227.6.882.882,0,0,1-.227.624.815.815,0,0,1-.51.2m0-1.389a.6.6,0,0,0-.368.142.709.709,0,0,0,0,.85.479.479,0,0,0,.68,0,.709.709,0,0,0,0-.85.366.366,0,0,0-.312-.142" transform="translate(-15.123 -339.255)" fill="#fff"/>
    <path id="Caminho_1669" data-name="Caminho 1669" d="M44.708,401.559,42.1,394.7h1.105l1.474,4.053a16.693,16.693,0,0,1,.6,1.842h.057q.085-.34.425-1.361c.255-.68.794-2.211,1.644-4.535h1.105L45.9,401.559Z" transform="translate(-22.145 -345.918)" fill="#fff"/>
    <path id="Caminho_1670" data-name="Caminho 1670" d="M45.553,401.486H44.193L41.5,394.4h1.361l1.5,4.138c.227.68.4,1.162.51,1.5l.34-1.02c.255-.68.794-2.211,1.644-4.535l.028-.085h1.361Zm-1.19-.255h1.049l2.523-6.6h-.85c-.822,2.268-1.361,3.77-1.616,4.45a7.783,7.783,0,0,0-.425,1.361l-.028.085H44.76l-.028-.085a16.691,16.691,0,0,0-.6-1.842l-1.446-3.968h-.85Z" transform="translate(-21.715 -345.704)" fill="#fff"/>
    <path id="Caminho_1671" data-name="Caminho 1671" d="M73.105,401.273l-.2-.964H72.85a3.137,3.137,0,0,1-1.02.879,3.314,3.314,0,0,1-1.276.227,2.157,2.157,0,0,1-1.587-.539,1.868,1.868,0,0,1-.567-1.5c0-1.389,1.105-2.1,3.316-2.183l1.162-.028v-.425a1.756,1.756,0,0,0-.34-1.19,1.416,1.416,0,0,0-1.105-.4,4.242,4.242,0,0,0-1.927.539l-.312-.794a4.707,4.707,0,0,1,1.105-.425,4.366,4.366,0,0,1,1.219-.17,2.572,2.572,0,0,1,1.814.539,2.269,2.269,0,0,1,.6,1.757v4.677Zm-2.324-.737A2.062,2.062,0,0,0,72.312,400a1.927,1.927,0,0,0,.539-1.474V397.9l-1.049.057a3.775,3.775,0,0,0-1.786.4,1.125,1.125,0,0,0-.539,1.049,1.07,1.07,0,0,0,.34.85,1.4,1.4,0,0,0,.964.283" transform="translate(-40.991 -345.632)" fill="#fff"/>
    <path id="Caminho_1672" data-name="Caminho 1672" d="M70.2,401.17a2.387,2.387,0,0,1-1.672-.567,2.089,2.089,0,0,1-.624-1.587c0-1.446,1.162-2.239,3.43-2.3l1.049-.028v-.312a1.66,1.66,0,0,0-.312-1.105,1.3,1.3,0,0,0-1.02-.34,4.332,4.332,0,0,0-1.871.51l-.113.057-.4-1.02.085-.057a4.987,4.987,0,0,1,1.134-.454,4.568,4.568,0,0,1,1.247-.17,2.813,2.813,0,0,1,1.9.567,2.377,2.377,0,0,1,.624,1.842V401h-.992l-.2-.879a2.785,2.785,0,0,1-.935.765,2.653,2.653,0,0,1-1.332.283m.85-6.463a1.524,1.524,0,0,1,1.19.425,1.854,1.854,0,0,1,.368,1.276v.539l-1.276.028c-2.154.057-3.2.737-3.2,2.041a1.838,1.838,0,0,0,.539,1.417,2.132,2.132,0,0,0,1.5.482,3.017,3.017,0,0,0,1.219-.227,2.6,2.6,0,0,0,.964-.85l.028-.057h.2l.2.964h.539v-4.564a2.241,2.241,0,0,0-.539-1.644,2.52,2.52,0,0,0-1.729-.51,5.691,5.691,0,0,0-1.19.142,5.94,5.94,0,0,0-.992.368l.227.567a6.614,6.614,0,0,1,1.956-.4m-.624,5.612a1.566,1.566,0,0,1-1.02-.312,1.178,1.178,0,0,1-.368-.935,1.3,1.3,0,0,1,.6-1.162,4.043,4.043,0,0,1,1.842-.4l1.162-.057v.737a2.116,2.116,0,0,1-.6,1.587,2.465,2.465,0,0,1-1.616.539m1.956-2.636-.907.028a3.562,3.562,0,0,0-1.729.368,1,1,0,0,0-.482.964.879.879,0,0,0,.312.765,1.352,1.352,0,0,0,.879.255,1.955,1.955,0,0,0,1.446-.51,1.862,1.862,0,0,0,.51-1.389v-.482Z" transform="translate(-40.632 -345.274)" fill="#fff"/>
    <path id="Caminho_1673" data-name="Caminho 1673" d="M98.618,401.486a2.946,2.946,0,0,1-2.3-.907A3.805,3.805,0,0,1,95.5,398a3.993,3.993,0,0,1,.822-2.664,2.952,2.952,0,0,1,2.353-.935,3.951,3.951,0,0,1,.992.113,2.651,2.651,0,0,1,.765.255l-.312.879a5.6,5.6,0,0,0-.737-.227,3.655,3.655,0,0,0-.709-.085c-1.389,0-2.1.879-2.1,2.664a3.123,3.123,0,0,0,.51,1.927,1.772,1.772,0,0,0,1.5.68,4.448,4.448,0,0,0,1.757-.368v.907a4.255,4.255,0,0,1-1.729.34" transform="translate(-60.409 -345.704)" fill="#fff"/>
    <path id="Caminho_1674" data-name="Caminho 1674" d="M98.331,401.17a2.94,2.94,0,0,1-2.381-.964,3.856,3.856,0,0,1-.85-2.664,4.092,4.092,0,0,1,.85-2.75,3.078,3.078,0,0,1,2.438-.992,4.171,4.171,0,0,1,1.02.113,5.278,5.278,0,0,1,.794.255l.085.057-.4,1.105-.113-.057a5.593,5.593,0,0,0-.737-.227,3.176,3.176,0,0,0-.68-.085c-1.332,0-1.956.822-1.956,2.551a3.136,3.136,0,0,0,.482,1.871,1.645,1.645,0,0,0,1.417.624,4.19,4.19,0,0,0,1.7-.368l.17-.057v1.162l-.057.028a3.4,3.4,0,0,1-1.786.4m.085-7.115a2.843,2.843,0,0,0-2.268.907,3.748,3.748,0,0,0-.794,2.579,3.641,3.641,0,0,0,.794,2.523,2.879,2.879,0,0,0,2.211.879,3.814,3.814,0,0,0,1.616-.312v-.68a4.952,4.952,0,0,1-1.644.312,1.978,1.978,0,0,1-1.616-.709,3.209,3.209,0,0,1-.539-2.012c0-1.842.737-2.778,2.211-2.778a3.672,3.672,0,0,1,.737.085,4.384,4.384,0,0,1,.652.2L100,394.4a2.975,2.975,0,0,0-.652-.2,3.564,3.564,0,0,0-.935-.142" transform="translate(-60.122 -345.274)" fill="#fff"/>
    <path id="Caminho_1675" data-name="Caminho 1675" d="M116.1,394.8h1.105l1.5,3.912a13.94,13.94,0,0,1,.624,1.927h.057c.057-.2.17-.567.34-1.077s.737-2.1,1.7-4.734h1.105l-2.948,7.795a3.9,3.9,0,0,1-1.02,1.644,2.278,2.278,0,0,1-1.446.482,3.522,3.522,0,0,1-.935-.113v-.822a3.162,3.162,0,0,0,.765.085,1.6,1.6,0,0,0,1.531-1.191l.368-.964Z" transform="translate(-75.17 -345.99)" fill="#fff"/>
    <path id="Caminho_1676" data-name="Caminho 1676" d="M116.69,404.476a3.733,3.733,0,0,1-.964-.113l-.085-.028v-1.077l.142.028a3.091,3.091,0,0,0,.737.085,1.475,1.475,0,0,0,1.417-1.134l.368-.935-2.806-7h1.389l1.531,4c.255.68.425,1.19.539,1.587.057-.2.142-.453.255-.737.17-.51.737-2.126,1.7-4.762l.028-.085H122.3l-3,7.965a3.983,3.983,0,0,1-1.049,1.7,2.51,2.51,0,0,1-1.559.51m-.822-.312a3.847,3.847,0,0,0,.822.085,2.025,2.025,0,0,0,1.361-.453,3.921,3.921,0,0,0,.992-1.587l2.891-7.625h-.85c-.935,2.579-1.5,4.167-1.672,4.677s-.283.879-.34,1.077l-.028.085h-.255l-.028-.085a17.56,17.56,0,0,0-.6-1.9l-1.474-3.827h-.85l2.721,6.774-.4,1.02a1.693,1.693,0,0,1-1.644,1.276,4.651,4.651,0,0,1-.652-.057Z" transform="translate(-74.74 -345.632)" fill="#fff"/>
    <path id="Caminho_1677" data-name="Caminho 1677" d="M162.153,395.827l-3.09-8.107h-.057q.085.978.085,2.3v5.811H158.1V386.7h1.587l2.891,7.54h.057l2.92-7.54h1.587v9.127h-1.049v-5.9q0-1.02.085-2.211h-.057L163,395.8h-.85Z" transform="translate(-105.265 -340.186)" fill="#fff"/>
    <path id="Caminho_1678" data-name="Caminho 1678" d="M167.069,395.61h-1.3V389.6c0-.482.028-1.02.057-1.587l-2.92,7.568h-1.02l-2.891-7.568c.028.482.028,1.049.028,1.644v5.924H157.8V386.2h1.814l2.835,7.4,2.863-7.4H167.1v9.411Zm-1.077-.255h.822v-8.9h-1.389l-2.92,7.54h-.227l-2.891-7.54H158v8.9h.737v-5.7c0-.879-.028-1.644-.085-2.268v-.142h.255l3.09,8.107h.68l3.118-8.078h.255v.142c-.057.794-.085,1.531-.085,2.183v5.754Z" transform="translate(-105.05 -339.828)" fill="#fff"/>
    <path id="Caminho_1679" data-name="Caminho 1679" d="M202.905,401.273l-.2-.964h-.057a3.136,3.136,0,0,1-1.02.879,3.314,3.314,0,0,1-1.276.227,2.157,2.157,0,0,1-1.587-.539,1.868,1.868,0,0,1-.567-1.5c0-1.389,1.105-2.1,3.316-2.183l1.162-.028v-.425a1.756,1.756,0,0,0-.34-1.19,1.416,1.416,0,0,0-1.105-.4,4.242,4.242,0,0,0-1.927.539l-.312-.794a4.707,4.707,0,0,1,1.105-.425,4.366,4.366,0,0,1,1.219-.17,2.572,2.572,0,0,1,1.814.539,2.269,2.269,0,0,1,.6,1.757v4.677Zm-2.353-.737a2.062,2.062,0,0,0,1.531-.539,1.927,1.927,0,0,0,.539-1.474V397.9l-1.049.057a3.775,3.775,0,0,0-1.786.4,1.125,1.125,0,0,0-.539,1.049,1.07,1.07,0,0,0,.34.85,1.5,1.5,0,0,0,.964.283" transform="translate(-133.999 -345.632)" fill="#fff"/>
    <path id="Caminho_1680" data-name="Caminho 1680" d="M200,401.17a2.387,2.387,0,0,1-1.672-.567,2.089,2.089,0,0,1-.624-1.587c0-1.446,1.162-2.239,3.43-2.3l1.049-.028v-.312a1.66,1.66,0,0,0-.312-1.105,1.3,1.3,0,0,0-1.02-.34,4.332,4.332,0,0,0-1.871.51l-.113.057-.4-1.02.085-.057a4.987,4.987,0,0,1,1.134-.454,4.568,4.568,0,0,1,1.247-.17,2.814,2.814,0,0,1,1.9.567,2.377,2.377,0,0,1,.624,1.842V401h-.992l-.2-.879A2.726,2.726,0,0,1,200,401.17m.85-6.463a1.524,1.524,0,0,1,1.19.425,1.854,1.854,0,0,1,.368,1.276v.539l-1.276.028c-2.154.057-3.2.737-3.2,2.041a1.838,1.838,0,0,0,.539,1.417,2.132,2.132,0,0,0,1.5.482,3.017,3.017,0,0,0,1.219-.227,2.6,2.6,0,0,0,.964-.85l.028-.057h.2l.2.964h.539v-4.564a2.241,2.241,0,0,0-.539-1.644,2.52,2.52,0,0,0-1.729-.51,5.69,5.69,0,0,0-1.19.142,5.941,5.941,0,0,0-.992.368l.227.567a6.291,6.291,0,0,1,1.956-.4m-.652,5.612a1.566,1.566,0,0,1-1.02-.312,1.178,1.178,0,0,1-.368-.935,1.3,1.3,0,0,1,.6-1.162,4.043,4.043,0,0,1,1.842-.4l1.162-.057v.737a2.116,2.116,0,0,1-.6,1.587,2.411,2.411,0,0,1-1.616.539m1.956-2.636-.907.028a3.562,3.562,0,0,0-1.729.368,1,1,0,0,0-.482.964.879.879,0,0,0,.312.765,1.352,1.352,0,0,0,.879.255,1.955,1.955,0,0,0,1.446-.51,1.862,1.862,0,0,0,.51-1.389v-.482Z" transform="translate(-133.641 -345.274)" fill="#fff"/>
    <path id="Caminho_1681" data-name="Caminho 1681" d="M231.305,401.273v-4.422a1.774,1.774,0,0,0-.368-1.247,1.524,1.524,0,0,0-1.19-.425,1.992,1.992,0,0,0-1.587.6,2.908,2.908,0,0,0-.51,1.927v3.6H226.6v-6.859h.85l.17.935h.057a2.082,2.082,0,0,1,.907-.794,2.8,2.8,0,0,1,1.276-.283,2.647,2.647,0,0,1,1.871.6,2.474,2.474,0,0,1,.624,1.9v4.479Z" transform="translate(-154.349 -345.632)" fill="#fff"/>
    <path id="Caminho_1682" data-name="Caminho 1682" d="M232.252,401.2h-1.276v-4.564a1.674,1.674,0,0,0-.34-1.162,1.409,1.409,0,0,0-1.105-.369,1.808,1.808,0,0,0-1.474.539,2.87,2.87,0,0,0-.482,1.842V401.2H226.3v-7.086h1.077l.142.822a2.4,2.4,0,0,1,.822-.652,2.958,2.958,0,0,1,1.332-.283,2.75,2.75,0,0,1,1.956.624,2.622,2.622,0,0,1,.652,1.984V401.2Zm-1.049-.255H232v-4.337a2.367,2.367,0,0,0-.6-1.814,2.545,2.545,0,0,0-1.786-.567,2.842,2.842,0,0,0-1.219.255,1.972,1.972,0,0,0-.85.737l-.028.057h-.227l-.17-.935H226.5v6.6h.794v-3.486a2.915,2.915,0,0,1,.539-1.984,2.062,2.062,0,0,1,1.672-.624,1.633,1.633,0,0,1,1.276.454,1.834,1.834,0,0,1,.425,1.332v4.308Z" transform="translate(-154.134 -345.417)" fill="#fff"/>
    <path id="Caminho_1683" data-name="Caminho 1683" d="M258.905,401.273l-.2-.964h-.057a3.136,3.136,0,0,1-1.02.879,3.314,3.314,0,0,1-1.276.227,2.157,2.157,0,0,1-1.587-.539,1.868,1.868,0,0,1-.567-1.5c0-1.389,1.105-2.1,3.316-2.183l1.162-.028v-.425a1.756,1.756,0,0,0-.34-1.19,1.416,1.416,0,0,0-1.105-.4,4.242,4.242,0,0,0-1.927.539l-.312-.794a4.708,4.708,0,0,1,1.105-.425,4.366,4.366,0,0,1,1.219-.17,2.572,2.572,0,0,1,1.814.539,2.269,2.269,0,0,1,.6,1.757v4.677Zm-2.353-.737a2.062,2.062,0,0,0,1.531-.539,1.927,1.927,0,0,0,.539-1.474V397.9l-1.049.057a3.774,3.774,0,0,0-1.786.4,1.125,1.125,0,0,0-.539,1.049,1.07,1.07,0,0,0,.34.85,1.5,1.5,0,0,0,.964.283" transform="translate(-174.126 -345.632)" fill="#fff"/>
    <path id="Caminho_1684" data-name="Caminho 1684" d="M256,401.17a2.386,2.386,0,0,1-1.672-.567,2.089,2.089,0,0,1-.624-1.587c0-1.446,1.162-2.239,3.43-2.3l1.049-.028v-.312a1.66,1.66,0,0,0-.312-1.105,1.3,1.3,0,0,0-1.02-.34,4.332,4.332,0,0,0-1.871.51l-.113.057-.4-1.02.085-.057a4.988,4.988,0,0,1,1.134-.454,4.568,4.568,0,0,1,1.247-.17,2.813,2.813,0,0,1,1.9.567,2.377,2.377,0,0,1,.624,1.842V401h-.992l-.2-.879A2.726,2.726,0,0,1,256,401.17m.85-6.463a1.524,1.524,0,0,1,1.19.425,1.854,1.854,0,0,1,.368,1.276v.539l-1.276.028c-2.154.057-3.2.737-3.2,2.041a1.838,1.838,0,0,0,.539,1.417,2.132,2.132,0,0,0,1.5.482,3.017,3.017,0,0,0,1.219-.227,2.6,2.6,0,0,0,.964-.85l.028-.057h.2l.2.964h.539v-4.564a2.241,2.241,0,0,0-.539-1.644,2.52,2.52,0,0,0-1.729-.51,5.691,5.691,0,0,0-1.191.142,5.94,5.94,0,0,0-.992.368l.227.567a6.291,6.291,0,0,1,1.956-.4m-.652,5.612a1.566,1.566,0,0,1-1.02-.312,1.178,1.178,0,0,1-.368-.935,1.3,1.3,0,0,1,.6-1.162,4.043,4.043,0,0,1,1.842-.4l1.162-.057v.737a2.116,2.116,0,0,1-.6,1.587,2.411,2.411,0,0,1-1.616.539m1.956-2.636-.907.028a3.562,3.562,0,0,0-1.729.368,1,1,0,0,0-.482.964.878.878,0,0,0,.312.765,1.352,1.352,0,0,0,.879.255,1.955,1.955,0,0,0,1.446-.51,1.862,1.862,0,0,0,.51-1.389v-.482Z" transform="translate(-173.768 -345.274)" fill="#fff"/>
    <path id="Caminho_1685" data-name="Caminho 1685" d="M286.063,394.442v.652l-1.276.142a2.123,2.123,0,0,1,.312.567,2.328,2.328,0,0,1,.142.794,2.037,2.037,0,0,1-.68,1.616,2.773,2.773,0,0,1-1.9.6,3.488,3.488,0,0,1-.567-.057.994.994,0,0,0-.652.879.5.5,0,0,0,.227.425,1.712,1.712,0,0,0,.794.142h1.219a2.7,2.7,0,0,1,1.7.482,1.627,1.627,0,0,1,.6,1.361,1.95,1.95,0,0,1-.907,1.729,4.882,4.882,0,0,1-2.664.6,3.54,3.54,0,0,1-2.069-.51,1.7,1.7,0,0,1-.34-2.494,2.017,2.017,0,0,1,1.134-.624,1.371,1.371,0,0,1-.454-.368,1.048,1.048,0,0,1-.17-.6.994.994,0,0,1,.2-.652,1.992,1.992,0,0,1,.624-.539,1.849,1.849,0,0,1-.879-.737,2.1,2.1,0,0,1-.34-1.19,2.2,2.2,0,0,1,.68-1.729,2.781,2.781,0,0,1,1.9-.624,3.331,3.331,0,0,1,.964.113h2.409Zm-5.471,7.993a.963.963,0,0,0,.482.85,2.517,2.517,0,0,0,1.332.283,3.764,3.764,0,0,0,1.927-.4,1.18,1.18,0,0,0,.624-1.049.83.83,0,0,0-.34-.765,2.654,2.654,0,0,0-1.3-.227h-1.247a1.612,1.612,0,0,0-1.105.34,1.3,1.3,0,0,0-.368.964m.567-5.811a1.39,1.39,0,0,0,.4,1.077,1.609,1.609,0,0,0,1.134.368c1.02,0,1.531-.482,1.531-1.474a1.353,1.353,0,0,0-1.531-1.531,1.622,1.622,0,0,0-1.134.4,1.6,1.6,0,0,0-.4,1.162" transform="translate(-192.326 -345.632)" fill="#fff"/>
    <path id="Caminho_1686" data-name="Caminho 1686" d="M282.048,404.118a3.906,3.906,0,0,1-2.154-.51,1.794,1.794,0,0,1-.794-1.5,1.679,1.679,0,0,1,.425-1.162,2.3,2.3,0,0,1,.907-.6,1.843,1.843,0,0,1-.227-.255,1.046,1.046,0,0,1-.2-.652,1.331,1.331,0,0,1,.227-.737,1.859,1.859,0,0,1,.482-.454,1.889,1.889,0,0,1-.709-.709,2.384,2.384,0,0,1-.34-1.276,2.27,2.27,0,0,1,.709-1.814,2.883,2.883,0,0,1,1.984-.652,3.668,3.668,0,0,1,.992.113h2.466v.879l-1.162.142a1.481,1.481,0,0,1,.2.425,2.672,2.672,0,0,1,.142.85,2.167,2.167,0,0,1-.737,1.7,2.845,2.845,0,0,1-1.956.624,3.841,3.841,0,0,1-.567-.057.893.893,0,0,0-.567.765.326.326,0,0,0,.17.312,1.469,1.469,0,0,0,.737.113H283.3a2.972,2.972,0,0,1,1.786.482,1.755,1.755,0,0,1,.652,1.446,2.066,2.066,0,0,1-.964,1.842,4.394,4.394,0,0,1-2.721.68m.312-10.062a2.753,2.753,0,0,0-1.842.567,2.077,2.077,0,0,0-.624,1.644,2.195,2.195,0,0,0,.312,1.134,1.662,1.662,0,0,0,.822.709l.227.085-.2.113a1.843,1.843,0,0,0-.6.51,1.047,1.047,0,0,0-.17.6.978.978,0,0,0,.142.51,1.154,1.154,0,0,0,.4.34l.34.142-.368.085a1.878,1.878,0,0,0-1.049.567,1.439,1.439,0,0,0-.368.992,1.484,1.484,0,0,0,.68,1.3,3.572,3.572,0,0,0,2.013.482,5.016,5.016,0,0,0,2.608-.567,1.822,1.822,0,0,0,.85-1.644,1.536,1.536,0,0,0-.539-1.276,2.7,2.7,0,0,0-1.644-.454h-1.219a2,2,0,0,1-.85-.142.54.54,0,0,1-.283-.51,1.158,1.158,0,0,1,.737-.992l.028-.028h.028a3.471,3.471,0,0,0,.539.057,2.777,2.777,0,0,0,1.814-.567,1.909,1.909,0,0,0,.652-1.5,1.678,1.678,0,0,0-.142-.765,3.094,3.094,0,0,0-.283-.539l-.142-.17,1.389-.17v-.425h-2.268c-.34-.028-.652-.085-.992-.085m-.312,9.269a2.84,2.84,0,0,1-1.417-.312,1.094,1.094,0,0,1-.539-.935,1.287,1.287,0,0,1,.425-1.049,1.713,1.713,0,0,1,1.19-.368h1.247a3.011,3.011,0,0,1,1.361.227.974.974,0,0,1,.4.879,1.321,1.321,0,0,1-.68,1.162,3.93,3.93,0,0,1-1.984.4m-.312-2.438a1.513,1.513,0,0,0-1.02.312,1.092,1.092,0,0,0-.34.879.822.822,0,0,0,.4.737,2.5,2.5,0,0,0,1.276.283,3.566,3.566,0,0,0,1.871-.368,1.024,1.024,0,0,0,.567-.964.739.739,0,0,0-.284-.68,2.413,2.413,0,0,0-1.219-.2h-1.247Zm.6-3.033a1.852,1.852,0,0,1-1.219-.4,1.535,1.535,0,0,1-.454-1.19,1.705,1.705,0,0,1,.425-1.247,1.635,1.635,0,0,1,1.219-.425,1.5,1.5,0,0,1,1.672,1.672,1.452,1.452,0,0,1-1.644,1.587m0-3.033a1.4,1.4,0,0,0-1.049.368,1.493,1.493,0,0,0-.368,1.077,1.225,1.225,0,0,0,.368.992,1.506,1.506,0,0,0,1.049.34,1.212,1.212,0,0,0,1.389-1.361,1.229,1.229,0,0,0-1.389-1.417" transform="translate(-191.968 -345.274)" fill="#fff"/>
    <path id="Caminho_1687" data-name="Caminho 1687" d="M310.788,401.415a3.16,3.16,0,0,1-2.409-.935,3.561,3.561,0,0,1-.879-2.579,4.017,4.017,0,0,1,.822-2.636,2.685,2.685,0,0,1,2.183-.964,2.611,2.611,0,0,1,2.041.85,3.19,3.19,0,0,1,.737,2.239v.652h-4.705a2.917,2.917,0,0,0,.6,1.842,2.094,2.094,0,0,0,1.616.624,5.383,5.383,0,0,0,2.183-.454v.935a4.1,4.1,0,0,1-1.049.34,9.323,9.323,0,0,1-1.134.085m-.283-6.236a1.631,1.631,0,0,0-1.3.539,2.392,2.392,0,0,0-.567,1.474h3.571a2.314,2.314,0,0,0-.425-1.5,1.6,1.6,0,0,0-1.276-.51" transform="translate(-212.318 -345.632)" fill="#fff"/>
    <path id="Caminho_1688" data-name="Caminho 1688" d="M310.5,401.17a3.268,3.268,0,0,1-2.494-.964,3.744,3.744,0,0,1-.907-2.664,4.114,4.114,0,0,1,.85-2.721,2.833,2.833,0,0,1,2.3-1.02,2.774,2.774,0,0,1,2.126.879,3.444,3.444,0,0,1,.794,2.324v.765h-4.705a2.458,2.458,0,0,0,.567,1.616,1.986,1.986,0,0,0,1.531.6,5.125,5.125,0,0,0,2.126-.454l.17-.085v1.19l-.085.028a4.285,4.285,0,0,1-1.077.34,2.939,2.939,0,0,1-1.19.17m-.255-7.115a2.577,2.577,0,0,0-2.1.935,3.92,3.92,0,0,0-.794,2.551,3.5,3.5,0,0,0,.85,2.494,3.012,3.012,0,0,0,2.3.879,4.6,4.6,0,0,0,1.162-.113,4.525,4.525,0,0,0,.935-.312v-.652a5.83,5.83,0,0,1-2.069.4,2.33,2.33,0,0,1-1.729-.652,2.881,2.881,0,0,1-.652-1.9v-.113h4.734v-.539a3.281,3.281,0,0,0-.709-2.154,2.4,2.4,0,0,0-1.927-.822m1.786,2.92h-3.827v-.142a2.444,2.444,0,0,1,.624-1.559,1.761,1.761,0,0,1,1.417-.567,1.671,1.671,0,0,1,1.332.567,2.408,2.408,0,0,1,.454,1.587Zm-3.571-.255h3.316a2.161,2.161,0,0,0-.4-1.3,1.474,1.474,0,0,0-1.162-.482,1.563,1.563,0,0,0-1.219.51,2.4,2.4,0,0,0-.539,1.276" transform="translate(-212.031 -345.274)" fill="#fff"/>
    <path id="Caminho_1689" data-name="Caminho 1689" d="M344.53,401.416v-4.45a1.84,1.84,0,0,0-.34-1.219,1.3,1.3,0,0,0-1.077-.4,1.8,1.8,0,0,0-1.446.567,2.6,2.6,0,0,0-.453,1.7v3.827h-1.049v-4.45a1.84,1.84,0,0,0-.34-1.219,1.323,1.323,0,0,0-1.105-.4,1.633,1.633,0,0,0-1.417.6,3.111,3.111,0,0,0-.454,1.927v3.6H335.8v-6.859h.85l.17.935h.057a2.21,2.21,0,0,1,.822-.794,2.46,2.46,0,0,1,1.191-.283,2.048,2.048,0,0,1,2.1,1.162h.057a2.117,2.117,0,0,1,.879-.85,2.886,2.886,0,0,1,1.332-.312,2.284,2.284,0,0,1,1.729.6,2.584,2.584,0,0,1,.567,1.9v4.478h-1.02Z" transform="translate(-232.596 -345.775)" fill="#fff"/>
    <path id="Caminho_1690" data-name="Caminho 1690" d="M345.549,401.2h-1.276v-4.564a1.894,1.894,0,0,0-.312-1.162,1.188,1.188,0,0,0-.992-.368,1.65,1.65,0,0,0-1.332.51,2.6,2.6,0,0,0-.425,1.644v3.94h-1.275v-4.564a1.894,1.894,0,0,0-.312-1.162,1.188,1.188,0,0,0-.992-.368,1.579,1.579,0,0,0-1.332.539,3.1,3.1,0,0,0-.425,1.842V401.2H335.6v-7.086h1.077l.142.794a2.222,2.222,0,0,1,.737-.624A2.606,2.606,0,0,1,338.8,394a2.177,2.177,0,0,1,2.126,1.077,1.971,1.971,0,0,1,.85-.737,2.8,2.8,0,0,1,1.389-.34,2.506,2.506,0,0,1,1.814.624,2.816,2.816,0,0,1,.624,1.984V401.2Zm-1.02-.255h.794v-4.337a2.481,2.481,0,0,0-.539-1.814,2.22,2.22,0,0,0-1.644-.567,3.016,3.016,0,0,0-1.275.283,2.094,2.094,0,0,0-.85.794l-.028.057h-.2l-.028-.085a1.9,1.9,0,0,0-1.984-1.077,2.471,2.471,0,0,0-1.134.255,1.99,1.99,0,0,0-.794.737l-.028.057h-.227l-.17-.935H335.8v6.6h.794V397.43a3.228,3.228,0,0,1,.482-1.984,1.8,1.8,0,0,1,1.531-.624,1.442,1.442,0,0,1,1.19.453,1.935,1.935,0,0,1,.368,1.3v4.337h.794V397.2a2.855,2.855,0,0,1,.482-1.786,1.905,1.905,0,0,1,1.531-.6,1.442,1.442,0,0,1,1.19.453,1.935,1.935,0,0,1,.368,1.3Z" transform="translate(-232.453 -345.417)" fill="#fff"/>
    <path id="Caminho_1691" data-name="Caminho 1691" d="M381.288,401.415a3.16,3.16,0,0,1-2.409-.935A3.561,3.561,0,0,1,378,397.9a4.017,4.017,0,0,1,.822-2.636A2.685,2.685,0,0,1,381,394.3a2.611,2.611,0,0,1,2.041.85,3.19,3.19,0,0,1,.737,2.239v.652h-4.705a2.917,2.917,0,0,0,.6,1.842,2.094,2.094,0,0,0,1.616.624,5.383,5.383,0,0,0,2.183-.454v.935a4.1,4.1,0,0,1-1.049.34,9.323,9.323,0,0,1-1.134.085M381,395.179a1.631,1.631,0,0,0-1.3.539,2.392,2.392,0,0,0-.567,1.474h3.571a2.315,2.315,0,0,0-.425-1.5,1.6,1.6,0,0,0-1.275-.51" transform="translate(-262.835 -345.632)" fill="#fff"/>
    <path id="Caminho_1692" data-name="Caminho 1692" d="M381,401.17a3.268,3.268,0,0,1-2.494-.964,3.744,3.744,0,0,1-.907-2.664,4.114,4.114,0,0,1,.85-2.721,2.834,2.834,0,0,1,2.3-1.02,2.774,2.774,0,0,1,2.126.879,3.444,3.444,0,0,1,.794,2.324v.765h-4.705a2.458,2.458,0,0,0,.567,1.616,1.986,1.986,0,0,0,1.531.6,5.125,5.125,0,0,0,2.126-.454l.17-.085v1.19l-.085.028a4.283,4.283,0,0,1-1.077.34,2.939,2.939,0,0,1-1.19.17m-.255-7.115a2.577,2.577,0,0,0-2.1.935,3.92,3.92,0,0,0-.794,2.551,3.5,3.5,0,0,0,.85,2.494,3.012,3.012,0,0,0,2.3.879,4.6,4.6,0,0,0,1.162-.113,4.525,4.525,0,0,0,.935-.312v-.652a5.83,5.83,0,0,1-2.069.4,2.33,2.33,0,0,1-1.729-.652,2.881,2.881,0,0,1-.652-1.9v-.113h4.734v-.539a3.282,3.282,0,0,0-.709-2.154,2.4,2.4,0,0,0-1.927-.822m1.786,2.92h-3.827v-.142a2.444,2.444,0,0,1,.624-1.559,1.76,1.76,0,0,1,1.417-.567,1.671,1.671,0,0,1,1.332.567,2.408,2.408,0,0,1,.454,1.587Zm-3.572-.255h3.316a2.162,2.162,0,0,0-.4-1.3,1.474,1.474,0,0,0-1.162-.482,1.563,1.563,0,0,0-1.219.51,2.4,2.4,0,0,0-.539,1.276" transform="translate(-262.548 -345.274)" fill="#fff"/>
    <path id="Caminho_1693" data-name="Caminho 1693" d="M411.005,401.273v-4.422a1.774,1.774,0,0,0-.368-1.247,1.524,1.524,0,0,0-1.19-.425,1.992,1.992,0,0,0-1.587.6,2.908,2.908,0,0,0-.51,1.927v3.6H406.3v-6.859h.85l.17.935h.057a2.083,2.083,0,0,1,.907-.794,2.8,2.8,0,0,1,1.276-.283,2.648,2.648,0,0,1,1.871.6,2.474,2.474,0,0,1,.624,1.9v4.479Z" transform="translate(-283.113 -345.632)" fill="#fff"/>
    <path id="Caminho_1694" data-name="Caminho 1694" d="M411.952,401.2h-1.276v-4.564a1.674,1.674,0,0,0-.34-1.162,1.409,1.409,0,0,0-1.105-.369,1.808,1.808,0,0,0-1.474.539,2.87,2.87,0,0,0-.482,1.842V401.2H406v-7.086h1.077l.142.822a2.4,2.4,0,0,1,.822-.652,2.958,2.958,0,0,1,1.332-.283,2.75,2.75,0,0,1,1.956.624,2.622,2.622,0,0,1,.652,1.984V401.2Zm-1.049-.255h.794v-4.337a2.367,2.367,0,0,0-.6-1.814,2.545,2.545,0,0,0-1.786-.567,2.842,2.842,0,0,0-1.219.255,1.972,1.972,0,0,0-.85.737l-.028.057h-.227l-.17-.935H406.2v6.6h.794v-3.486a2.915,2.915,0,0,1,.539-1.984,2.062,2.062,0,0,1,1.672-.624,1.593,1.593,0,0,1,1.275.454,1.834,1.834,0,0,1,.425,1.332Z" transform="translate(-282.898 -345.417)" fill="#fff"/>
    <path id="Caminho_1695" data-name="Caminho 1695" d="M435.446,396.81a3.433,3.433,0,0,0,.539-.028,3.022,3.022,0,0,0,.4-.085v.794a3.013,3.013,0,0,1-.51.142,5.184,5.184,0,0,1-.6.057c-1.332,0-1.984-.709-1.984-2.1v-4.082H432.3V391l.992-.425.425-1.474h.6v1.587H436.3v.794h-1.984v4.025a1.276,1.276,0,0,0,.283.935,1.029,1.029,0,0,0,.85.368" transform="translate(-301.744 -341.906)" fill="#fff"/>
    <path id="Caminho_1696" data-name="Caminho 1696" d="M435.09,397.444c-1.389,0-2.1-.737-2.1-2.211v-3.968H432v-.709l.992-.454.454-1.5h.822v1.587h1.984v1.049h-1.984v3.912a1.352,1.352,0,0,0,.255.879.862.862,0,0,0,.709.283,3.08,3.08,0,0,0,.51-.028c.17-.028.283-.057.4-.085l.142-.057v1.02l-.057.028a1.592,1.592,0,0,1-.539.142,1.575,1.575,0,0,1-.6.113m-2.835-6.406h.992v4.2c0,1.332.624,1.984,1.871,1.984a4.26,4.26,0,0,0,.567-.057c.17-.028.283-.057.4-.085v-.567c-.085.028-.17.028-.255.057a3.433,3.433,0,0,1-.539.028,1.156,1.156,0,0,1-.907-.368,1.468,1.468,0,0,1-.312-1.02v-4.167h1.984v-.567h-1.984v-1.587h-.4l-.425,1.417-.964.425v.312Z" transform="translate(-301.529 -341.548)" fill="#fff"/>
    <path id="Caminho_1697" data-name="Caminho 1697" d="M470.654,392.959a2.176,2.176,0,0,1-.879,1.871,3.83,3.83,0,0,1-2.381.68,5.809,5.809,0,0,1-2.494-.425v-1.02a5.541,5.541,0,0,0,1.219.368,7.051,7.051,0,0,0,1.3.142,2.666,2.666,0,0,0,1.587-.4,1.3,1.3,0,0,0,.539-1.134,1.283,1.283,0,0,0-.2-.765,1.759,1.759,0,0,0-.624-.567,11.7,11.7,0,0,0-1.361-.6,4.317,4.317,0,0,1-1.814-1.077,2.4,2.4,0,0,1-.539-1.644,1.957,1.957,0,0,1,.794-1.672,3.244,3.244,0,0,1,2.1-.624,5.946,5.946,0,0,1,2.494.51l-.34.935a5.766,5.766,0,0,0-2.211-.482,2.123,2.123,0,0,0-1.332.368,1.225,1.225,0,0,0-.482,1.02,1.53,1.53,0,0,0,.17.765,1.646,1.646,0,0,0,.6.567,7.145,7.145,0,0,0,1.275.567,5,5,0,0,1,1.984,1.105,1.868,1.868,0,0,1,.6,1.5" transform="translate(-325.103 -339.756)" fill="#fff"/>
    <path id="Caminho_1698" data-name="Caminho 1698" d="M467.108,395.581a6.1,6.1,0,0,1-2.551-.425l-.057-.028v-1.276l.17.057a7.316,7.316,0,0,0,1.191.369,6.761,6.761,0,0,0,1.276.142,2.543,2.543,0,0,0,1.531-.369,1.188,1.188,0,0,0,.482-1.02,1.311,1.311,0,0,0-.17-.709,1.352,1.352,0,0,0-.6-.51,7.122,7.122,0,0,0-1.332-.567,4.4,4.4,0,0,1-1.871-1.105,2.564,2.564,0,0,1-.567-1.7,2.176,2.176,0,0,1,.85-1.786,3.45,3.45,0,0,1,2.183-.652,6.309,6.309,0,0,1,2.551.51l.113.057-.425,1.162-.113-.057a5.552,5.552,0,0,0-2.154-.453,1.98,1.98,0,0,0-1.247.34,1.078,1.078,0,0,0-.425.907,1.311,1.311,0,0,0,.17.709,1.565,1.565,0,0,0,.539.51,6.977,6.977,0,0,0,1.247.539,5.143,5.143,0,0,1,2.012,1.134,2.387,2.387,0,0,1,.567,1.616,2.358,2.358,0,0,1-.935,1.984,4.3,4.3,0,0,1-2.438.624m-2.353-.624a5.984,5.984,0,0,0,2.381.368,3.743,3.743,0,0,0,2.3-.652,2.082,2.082,0,0,0,.822-1.786,2.047,2.047,0,0,0-.51-1.446,5.067,5.067,0,0,0-1.927-1.077,7.6,7.6,0,0,1-1.3-.567,1.585,1.585,0,0,1-.624-.6,1.882,1.882,0,0,1-.2-.85,1.334,1.334,0,0,1,.51-1.105,2.247,2.247,0,0,1,1.389-.4,5.8,5.8,0,0,1,2.126.425l.255-.709a6.324,6.324,0,0,0-2.353-.454,3.1,3.1,0,0,0-2.012.6,1.863,1.863,0,0,0-.737,1.587,2.346,2.346,0,0,0,.51,1.559,4.052,4.052,0,0,0,1.757,1.049,10.526,10.526,0,0,1,1.389.6,1.781,1.781,0,0,1,.68.6,1.576,1.576,0,0,1,.2.85,1.43,1.43,0,0,1-.6,1.219,2.744,2.744,0,0,1-1.672.425,7.345,7.345,0,0,1-1.332-.142c-.368-.085-.737-.2-1.077-.312v.822Z" transform="translate(-324.817 -339.685)" fill="#fff"/>
    <path id="Caminho_1699" data-name="Caminho 1699" d="M497.721,397.771a3.752,3.752,0,0,1-.85,2.608,2.97,2.97,0,0,1-2.324.935,3.157,3.157,0,0,1-1.644-.425,2.794,2.794,0,0,1-1.105-1.247,4.364,4.364,0,0,1-.4-1.9,3.752,3.752,0,0,1,.85-2.608,2.971,2.971,0,0,1,2.324-.935,2.877,2.877,0,0,1,2.3.964,3.851,3.851,0,0,1,.85,2.608m-5.215,0a3.209,3.209,0,0,0,.539,2.012,1.791,1.791,0,0,0,1.531.68,1.883,1.883,0,0,0,1.559-.68,3.339,3.339,0,0,0,.539-2.012,3.067,3.067,0,0,0-.539-1.984,1.846,1.846,0,0,0-1.559-.68,1.791,1.791,0,0,0-1.531.68,3.067,3.067,0,0,0-.539,1.984" transform="translate(-344.092 -345.56)" fill="#fff"/>
    <path id="Caminho_1700" data-name="Caminho 1700" d="M494.331,401.313a3.186,3.186,0,0,1-1.7-.454,3.093,3.093,0,0,1-1.134-1.276,4.5,4.5,0,0,1-.4-1.927,3.855,3.855,0,0,1,.879-2.693,3.039,3.039,0,0,1,2.409-.964,3.078,3.078,0,0,1,2.381.992,4.522,4.522,0,0,1,0,5.357,3.242,3.242,0,0,1-2.438.964m.028-7.115a2.862,2.862,0,0,0-2.239.907,3.641,3.641,0,0,0-.794,2.523,4.2,4.2,0,0,0,.368,1.842,2.863,2.863,0,0,0,1.049,1.19,2.926,2.926,0,0,0,1.559.425,2.862,2.862,0,0,0,2.239-.907,4.238,4.238,0,0,0,0-5.017,2.611,2.611,0,0,0-2.182-.964m0,6.236a1.974,1.974,0,0,1-1.644-.737,3.334,3.334,0,0,1-.539-2.069,3.279,3.279,0,0,1,.539-2.069,2.231,2.231,0,0,1,3.288.028,3.334,3.334,0,0,1,.539,2.069,3.469,3.469,0,0,1-.539,2.069,1.991,1.991,0,0,1-1.644.709m-.028-5.329a1.7,1.7,0,0,0-1.446.624,3.993,3.993,0,0,0,.028,3.855,1.718,1.718,0,0,0,1.446.652,1.7,1.7,0,0,0,1.446-.624,3.068,3.068,0,0,0,.51-1.927,2.978,2.978,0,0,0-.51-1.9,1.651,1.651,0,0,0-1.474-.68" transform="translate(-343.877 -345.417)" fill="#fff"/>
    <path id="Caminho_1701" data-name="Caminho 1701" d="M522.425,388.142h-1.757v6.037h-1.049v-6.037H518.4v-.482l1.219-.368v-.369c0-1.672.737-2.523,2.211-2.523a4.667,4.667,0,0,1,1.276.227l-.255.822a3.058,3.058,0,0,0-1.02-.2,1.042,1.042,0,0,0-.879.4,2.08,2.08,0,0,0-.283,1.247v.453h1.757Z" transform="translate(-363.439 -338.538)" fill="#fff"/>
    <path id="Caminho_1702" data-name="Caminho 1702" d="M520.523,394.034h-1.276v-6.066H518v-.68l1.219-.368v-.283c0-1.757.794-2.636,2.324-2.636a4.851,4.851,0,0,1,1.3.227l.113.028-.34,1.077-.113-.028c-.907-.284-1.474-.255-1.757.142a2.058,2.058,0,0,0-.255,1.19v.312h1.757V388h-1.757v6.037Zm-1.049-.255h.794v-6.037h1.758v-.567h-1.758v-.567a2.365,2.365,0,0,1,.312-1.332c.34-.482.964-.567,1.928-.283l.2-.6a4.4,4.4,0,0,0-1.134-.17c-1.389,0-2.1.794-2.1,2.409v.482l-1.219.368v.255h1.219Z" transform="translate(-363.152 -338.251)" fill="#fff"/>
    <path id="Caminho_1703" data-name="Caminho 1703" d="M538.446,396.81a3.433,3.433,0,0,0,.538-.028,3.017,3.017,0,0,0,.4-.085v.794a3.013,3.013,0,0,1-.51.142,5.181,5.181,0,0,1-.6.057c-1.332,0-1.984-.709-1.984-2.1v-4.082H535.3V391l.992-.425.425-1.474h.6v1.587H539.3v.794h-1.984v4.025a1.276,1.276,0,0,0,.283.935,1,1,0,0,0,.85.368" transform="translate(-375.549 -341.906)" fill="#fff"/>
    <path id="Caminho_1704" data-name="Caminho 1704" d="M537.99,397.444c-1.389,0-2.1-.737-2.1-2.211v-3.968H534.9v-.709l.992-.454.454-1.5h.822v1.587h1.984v1.049h-1.984v3.912a1.352,1.352,0,0,0,.255.879.862.862,0,0,0,.709.283,3.081,3.081,0,0,0,.51-.028c.17-.028.283-.057.4-.085l.142-.057v1.02l-.057.028a1.591,1.591,0,0,1-.538.142,1.481,1.481,0,0,1-.6.113m-2.834-6.406h.992v4.2c0,1.332.624,1.984,1.871,1.984a4.262,4.262,0,0,0,.567-.057c.17-.028.283-.057.4-.085v-.567c-.085.028-.17.028-.255.057a3.433,3.433,0,0,1-.539.028,1.157,1.157,0,0,1-.907-.368,1.468,1.468,0,0,1-.312-1.02v-4.167h1.984v-.567h-1.984v-1.587h-.4l-.425,1.417-.964.425v.312Z" transform="translate(-375.262 -341.548)" fill="#fff"/>
    <path id="Caminho_1705" data-name="Caminho 1705" d="M559.248,401.488,558,397.463c-.085-.255-.227-.794-.453-1.672h-.057q-.255,1.105-.425,1.7l-1.3,4h-1.19l-1.871-6.859h1.077c.453,1.729.765,3.033,1.02,3.94a16.2,16.2,0,0,1,.4,1.814h.057c.057-.227.113-.539.227-.935.113-.368.2-.68.255-.907l1.247-3.94h1.134l1.219,3.94a14.765,14.765,0,0,1,.482,1.814h.057c.028-.142.057-.369.142-.68s.51-1.984,1.3-5.045h1.077l-1.9,6.859Z" transform="translate(-388.017 -345.847)" fill="#fff"/>
    <path id="Caminho_1706" data-name="Caminho 1706" d="M560.222,401.343H558.8l-1.276-4.11c-.057-.2-.17-.624-.34-1.3-.142.539-.255.992-.34,1.3l-1.332,4.082h-1.389l-1.927-7.086h1.332l1.02,4.025c.142.567.255,1.02.312,1.332.028-.142.085-.283.113-.454.113-.368.2-.68.255-.907l1.276-4.025h1.3l1.247,4.025a10.7,10.7,0,0,1,.368,1.332c.028-.057.028-.142.057-.2.085-.312.51-2.012,1.3-5.045l.028-.085h1.332Zm-1.247-.255h1.049l1.814-6.6h-.822c-.765,2.976-1.219,4.649-1.276,4.96-.085.312-.113.539-.142.68v.113h-.255l-.028-.113a10.752,10.752,0,0,0-.482-1.786l-1.191-3.855h-.935l-1.219,3.855a6.971,6.971,0,0,0-.255.879c-.113.369-.17.68-.227.907l-.028.085h-.255V400.1a16.184,16.184,0,0,0-.4-1.814l-.992-3.827h-.822l1.814,6.6h1.02l1.276-3.912c.113-.4.283-.964.425-1.672l.028-.085h.255l.028.085c.227.879.368,1.417.453,1.672Z" transform="translate(-387.658 -345.56)" fill="#fff"/>
    <path id="Caminho_1707" data-name="Caminho 1707" d="M595.705,401.273l-.2-.964h-.057a3.136,3.136,0,0,1-1.02.879,3.314,3.314,0,0,1-1.275.227,2.157,2.157,0,0,1-1.587-.539,1.868,1.868,0,0,1-.567-1.5c0-1.389,1.105-2.1,3.316-2.183l1.162-.028v-.425a1.756,1.756,0,0,0-.34-1.19,1.415,1.415,0,0,0-1.105-.4,4.242,4.242,0,0,0-1.927.539l-.312-.794a4.708,4.708,0,0,1,1.105-.425,4.367,4.367,0,0,1,1.219-.17,2.572,2.572,0,0,1,1.814.539,2.269,2.269,0,0,1,.6,1.757v4.677Zm-2.324-.737a2.062,2.062,0,0,0,1.531-.539,1.927,1.927,0,0,0,.539-1.474V397.9l-1.049.057a3.775,3.775,0,0,0-1.786.4,1.125,1.125,0,0,0-.539,1.049,1.07,1.07,0,0,0,.34.85,1.4,1.4,0,0,0,.964.283" transform="translate(-415.46 -345.632)" fill="#fff"/>
    <path id="Caminho_1708" data-name="Caminho 1708" d="M592.9,401.17a2.387,2.387,0,0,1-1.672-.567,2.089,2.089,0,0,1-.624-1.587c0-1.446,1.162-2.239,3.43-2.3l1.049-.028v-.312a1.66,1.66,0,0,0-.312-1.105,1.3,1.3,0,0,0-1.02-.34,4.331,4.331,0,0,0-1.871.51l-.113.057-.4-1.02.085-.057a4.988,4.988,0,0,1,1.134-.454,4.568,4.568,0,0,1,1.247-.17,2.814,2.814,0,0,1,1.9.567,2.377,2.377,0,0,1,.624,1.842V401h-.992l-.2-.879a2.726,2.726,0,0,1-2.268,1.049m.85-6.463a1.525,1.525,0,0,1,1.19.425,1.854,1.854,0,0,1,.368,1.276v.539l-1.276.028c-2.154.057-3.2.737-3.2,2.041a1.838,1.838,0,0,0,.538,1.417,2.132,2.132,0,0,0,1.5.482,3.017,3.017,0,0,0,1.219-.227,2.6,2.6,0,0,0,.964-.85l.028-.057h.2l.2.964h.539v-4.564a2.241,2.241,0,0,0-.539-1.644,2.52,2.52,0,0,0-1.729-.51,5.693,5.693,0,0,0-1.191.142,5.945,5.945,0,0,0-.992.368l.227.567a6.291,6.291,0,0,1,1.956-.4m-.652,5.612a1.566,1.566,0,0,1-1.02-.312,1.178,1.178,0,0,1-.368-.935,1.3,1.3,0,0,1,.6-1.162,4.043,4.043,0,0,1,1.842-.4l1.162-.057v.737a2.116,2.116,0,0,1-.6,1.587,2.411,2.411,0,0,1-1.616.539m1.956-2.636-.907.028a3.563,3.563,0,0,0-1.729.368,1,1,0,0,0-.482.964.878.878,0,0,0,.312.765,1.352,1.352,0,0,0,.879.255,1.955,1.955,0,0,0,1.445-.51,1.862,1.862,0,0,0,.51-1.389v-.482Z" transform="translate(-415.174 -345.274)" fill="#fff"/>
    <path id="Caminho_1709" data-name="Caminho 1709" d="M622.618,394.3a3.662,3.662,0,0,1,.822.085l-.142.964a3.918,3.918,0,0,0-.737-.085,1.8,1.8,0,0,0-1.417.68,2.466,2.466,0,0,0-.6,1.672V401.3H619.5v-6.859h.85l.113,1.276h.057a2.93,2.93,0,0,1,.907-1.02,1.883,1.883,0,0,1,1.191-.4" transform="translate(-435.882 -345.632)" fill="#fff"/>
    <path id="Caminho_1710" data-name="Caminho 1710" d="M620.376,401.128H619.1v-7.086h1.077l.113,1.077a3.149,3.149,0,0,1,.794-.822,2.174,2.174,0,0,1,1.247-.4,3.926,3.926,0,0,1,.85.085l.113.028-.17,1.19-.113-.028a3.68,3.68,0,0,0-.737-.085,1.7,1.7,0,0,0-1.332.624,2.387,2.387,0,0,0-.567,1.616v3.8Zm-1.049-.255h.794V397.33a2.473,2.473,0,0,1,.624-1.757,1.944,1.944,0,0,1,1.5-.709,6.1,6.1,0,0,1,.652.057l.113-.709a4.706,4.706,0,0,0-.68-.057,1.954,1.954,0,0,0-1.105.34,3.028,3.028,0,0,0-.879.992l-.028.057h-.227l-.113-1.276h-.624v6.6Z" transform="translate(-435.596 -345.345)" fill="#fff"/>
    <path id="Caminho_1711" data-name="Caminho 1711" d="M641.388,401.415a3.159,3.159,0,0,1-2.409-.935,3.561,3.561,0,0,1-.879-2.579,4.017,4.017,0,0,1,.822-2.636,2.685,2.685,0,0,1,2.183-.964,2.611,2.611,0,0,1,2.041.85,3.19,3.19,0,0,1,.737,2.239v.652h-4.705a2.917,2.917,0,0,0,.6,1.842,2.094,2.094,0,0,0,1.616.624,5.384,5.384,0,0,0,2.183-.454v.935a4.1,4.1,0,0,1-1.049.34,10.386,10.386,0,0,1-1.134.085m-.283-6.236a1.631,1.631,0,0,0-1.3.539,2.392,2.392,0,0,0-.567,1.474h3.571a2.315,2.315,0,0,0-.425-1.5,1.645,1.645,0,0,0-1.276-.51" transform="translate(-449.21 -345.632)" fill="#fff"/>
    <path id="Caminho_1712" data-name="Caminho 1712" d="M641.1,401.17a3.267,3.267,0,0,1-2.494-.964,3.744,3.744,0,0,1-.907-2.664,4.114,4.114,0,0,1,.85-2.721,2.833,2.833,0,0,1,2.3-1.02,2.774,2.774,0,0,1,2.126.879,3.443,3.443,0,0,1,.794,2.324v.765h-4.705a2.458,2.458,0,0,0,.567,1.616,1.986,1.986,0,0,0,1.531.6,5.124,5.124,0,0,0,2.126-.454l.17-.085v1.19l-.085.028a4.282,4.282,0,0,1-1.077.34,2.939,2.939,0,0,1-1.19.17m-.255-7.115a2.576,2.576,0,0,0-2.1.935,3.92,3.92,0,0,0-.794,2.551,3.5,3.5,0,0,0,.85,2.494,3.012,3.012,0,0,0,2.3.879,4.6,4.6,0,0,0,1.162-.113,4.524,4.524,0,0,0,.935-.312v-.652a5.83,5.83,0,0,1-2.069.4,2.33,2.33,0,0,1-1.729-.652,2.88,2.88,0,0,1-.652-1.9v-.113h4.734v-.539a3.281,3.281,0,0,0-.709-2.154,2.484,2.484,0,0,0-1.927-.822m1.786,2.92h-3.827v-.142a2.445,2.445,0,0,1,.624-1.559,1.76,1.76,0,0,1,1.417-.567,1.671,1.671,0,0,1,1.332.567,2.407,2.407,0,0,1,.454,1.587Zm-3.571-.255h3.316a2.161,2.161,0,0,0-.4-1.3,1.474,1.474,0,0,0-1.162-.482,1.563,1.563,0,0,0-1.219.51,2.2,2.2,0,0,0-.539,1.276" transform="translate(-448.923 -345.274)" fill="#fff"/>
    <path id="Caminho_1713" data-name="Caminho 1713" d="M3.019,240.5c0,5.187-1.3,9.269-3.94,12.245s-6.264,4.45-10.941,4.45c-4.79,0-8.475-1.474-11.054-4.393-2.608-2.92-3.883-7.058-3.883-12.387,0-5.272,1.3-9.382,3.912-12.273,2.551-2.863,6.264-4.337,11.054-4.337,4.649,0,8.305,1.474,10.913,4.45,2.636,2.948,3.94,7.03,3.94,12.245m-25.85,0c0,4.393.935,7.738,2.806,10.006s4.592,3.4,8.163,3.4c3.6,0,6.321-1.134,8.135-3.4,1.842-2.268,2.749-5.612,2.749-10.006,0-4.365-.907-7.681-2.749-9.921-1.814-2.268-4.535-3.373-8.107-3.373-3.6,0-6.321,1.134-8.192,3.4s-2.806,5.556-2.806,9.892" transform="translate(27.225 -223.46)" fill="#fff"/>
    <path id="Caminho_1714" data-name="Caminho 1714" d="M-12.965,256.727c-4.875,0-8.674-1.531-11.338-4.507-2.636-2.976-4-7.228-4-12.613,0-5.357,1.332-9.552,4-12.528s6.491-4.478,11.366-4.478c4.734,0,8.5,1.531,11.2,4.564,2.664,3,4.025,7.228,4.025,12.5s-1.361,9.467-4.025,12.5c-2.664,3-6.463,4.564-11.225,4.564m.057-33.419c-4.677,0-8.305,1.417-10.828,4.252s-3.827,6.888-3.827,12.047c0,5.215,1.276,9.3,3.8,12.132s6.151,4.252,10.8,4.252c4.535,0,8.135-1.446,10.686-4.337s3.855-6.945,3.855-12.018c0-5.1-1.3-9.127-3.827-12.018-2.551-2.863-6.122-4.308-10.658-4.308m-.057,30.1c-3.656,0-6.491-1.19-8.447-3.543-1.927-2.324-2.891-5.782-2.891-10.232,0-4.393.964-7.823,2.891-10.147,1.927-2.353,4.79-3.543,8.475-3.543s6.491,1.19,8.39,3.515c1.871,2.324,2.834,5.726,2.834,10.176,0,4.478-.964,7.908-2.834,10.232-1.871,2.353-4.705,3.543-8.418,3.543m.057-26.729c-3.458,0-6.122,1.105-7.908,3.288-1.814,2.183-2.721,5.442-2.721,9.666,0,4.28.907,7.568,2.721,9.779,1.786,2.183,4.45,3.288,7.88,3.288,3.458,0,6.122-1.105,7.852-3.26,1.786-2.183,2.664-5.471,2.664-9.779,0-4.252-.907-7.511-2.664-9.694-1.729-2.183-4.365-3.288-7.823-3.288" transform="translate(28.3 -222.6)" fill="#fff"/>
    <path id="Caminho_1715" data-name="Caminho 1715" d="M118.567,277.4V261.67a6.383,6.383,0,0,0-1.361-4.45,5.6,5.6,0,0,0-4.252-1.474c-2.551,0-4.422.68-5.584,2.069q-1.786,2.083-1.786,6.8v12.755H101.9v-24.32h3l.6,3.316h.17a7.587,7.587,0,0,1,3.175-2.778,10.462,10.462,0,0,1,4.564-.992c2.92,0,5.13.709,6.6,2.126s2.211,3.685,2.211,6.774v15.873h-3.656Z" transform="translate(-64.995 -244.097)" fill="#fff"/>
    <path id="Caminho_1716" data-name="Caminho 1716" d="M121.689,276.982h-4.422v-16.1a6.13,6.13,0,0,0-1.247-4.2,5.133,5.133,0,0,0-3.968-1.361c-2.409,0-4.223.652-5.329,1.927-1.105,1.3-1.7,3.515-1.7,6.576v13.124H100.6V251.925h3.656l.539,2.976a8.116,8.116,0,0,1,2.948-2.381,10.7,10.7,0,0,1,4.705-1.02c3,0,5.329.737,6.859,2.211,1.559,1.474,2.324,3.855,2.324,7.058v16.213ZM118,276.245h2.948v-15.5c0-2.976-.709-5.187-2.1-6.519-1.417-1.332-3.543-2.012-6.349-2.012a9.71,9.71,0,0,0-4.393.964,7.142,7.142,0,0,0-3.033,2.664l-.113.17h-.68l-.6-3.316h-2.324V276.3h2.948V263.915c0-3.231.624-5.612,1.871-7.058s3.231-2.183,5.867-2.183a5.888,5.888,0,0,1,4.507,1.587A6.7,6.7,0,0,1,118,260.939v15.306Z" transform="translate(-64.063 -243.308)" fill="#fff"/>
    <path id="Caminho_1717" data-name="Caminho 1717" d="M207.221,277.927a11.165,11.165,0,0,1-8.5-3.288c-2.069-2.183-3.118-5.215-3.118-9.127s.964-7.03,2.891-9.354a9.657,9.657,0,0,1,7.766-3.458,9.087,9.087,0,0,1,7.228,3,11.491,11.491,0,0,1,2.664,7.937v2.324H199.4c.085,2.863.794,5.017,2.154,6.491a7.477,7.477,0,0,0,5.782,2.211,19.416,19.416,0,0,0,7.766-1.644v3.288a19.972,19.972,0,0,1-3.685,1.219,19.509,19.509,0,0,1-4.2.4m-.992-22.137a6.007,6.007,0,0,0-4.677,1.9,8.737,8.737,0,0,0-2.041,5.272h12.727a7.971,7.971,0,0,0-1.559-5.329,5.549,5.549,0,0,0-4.45-1.842" transform="translate(-132.136 -244.168)" fill="#fff"/>
    <path id="Caminho_1718" data-name="Caminho 1718" d="M206.218,277.364a11.571,11.571,0,0,1-8.787-3.4c-2.126-2.239-3.231-5.414-3.231-9.382,0-4,.992-7.2,2.976-9.581a10.005,10.005,0,0,1,8.05-3.6,9.585,9.585,0,0,1,7.511,3.118,12,12,0,0,1,2.749,8.163v2.693H198.735a9.123,9.123,0,0,0,2.041,5.9,7.22,7.22,0,0,0,5.527,2.1,19.2,19.2,0,0,0,7.625-1.616l.51-.227v4.138l-.227.085a18.14,18.14,0,0,1-3.77,1.219,19.416,19.416,0,0,1-4.223.4m-.935-25.227a9.388,9.388,0,0,0-7.511,3.345c-1.871,2.239-2.806,5.3-2.806,9.1,0,3.77,1.02,6.774,3,8.872a10.867,10.867,0,0,0,8.248,3.175,19.309,19.309,0,0,0,4.138-.368,18.19,18.19,0,0,0,3.4-1.105v-2.494a20.124,20.124,0,0,1-7.4,1.474,7.877,7.877,0,0,1-6.037-2.324c-1.417-1.531-2.183-3.8-2.268-6.746v-.368h16.78v-1.956a11.1,11.1,0,0,0-2.579-7.681,8.79,8.79,0,0,0-6.973-2.92m6.293,10.289H198.112l.028-.4a9.241,9.241,0,0,1,2.154-5.5,6.428,6.428,0,0,1,4.932-2.041,5.834,5.834,0,0,1,4.705,1.984,8.572,8.572,0,0,1,1.644,5.584Zm-12.67-.737h11.962a7.481,7.481,0,0,0-1.474-4.734,5.059,5.059,0,0,0-4.167-1.729,5.6,5.6,0,0,0-4.393,1.786,8.222,8.222,0,0,0-1.927,4.677" transform="translate(-131.133 -243.237)" fill="#fff"/>
    <path id="Caminho_1719" data-name="Caminho 1719" d="M292.031,258.055h-3.77v-29.11H278V225.6h24.32v3.345H292.031Z" transform="translate(-191.18 -224.75)" fill="#fff"/>
    <path id="Caminho_1720" data-name="Caminho 1720" d="M291.4,257.492h-4.507v-29.11H276.6V224.3h25.057v4.082H291.368v29.11Zm-3.77-.737h3.033V227.673h10.289v-2.636H277.337v2.636h10.289Z" transform="translate(-190.177 -223.818)" fill="#fff"/>
    <path id="Caminho_1721" data-name="Caminho 1721" d="M390.183,252.7a15.338,15.338,0,0,1,2.92.255l-.51,3.43a12.443,12.443,0,0,0-2.664-.34,6.437,6.437,0,0,0-5.045,2.409,8.8,8.8,0,0,0-2.1,5.981v13.039H379.1v-24.32h3.033l.425,4.507h.17a10.571,10.571,0,0,1,3.26-3.656,7.2,7.2,0,0,1,4.2-1.3" transform="translate(-263.623 -244.168)" fill="#fff"/>
    <path id="Caminho_1722" data-name="Caminho 1722" d="M382.122,276.91H377.7V251.854h3.77l.368,4a11.014,11.014,0,0,1,2.948-3.09,7.662,7.662,0,0,1,4.393-1.361,13.607,13.607,0,0,1,2.976.283l.34.057-.624,4.138-.368-.085a11.349,11.349,0,0,0-2.579-.312,6.046,6.046,0,0,0-4.762,2.268,8.452,8.452,0,0,0-2.012,5.726V276.91Zm-3.685-.737h2.948v-12.7a9.117,9.117,0,0,1,2.183-6.208,6.889,6.889,0,0,1,5.329-2.523,12.6,12.6,0,0,1,2.353.255l.4-2.693a13.484,13.484,0,0,0-2.494-.2,7.206,7.206,0,0,0-4,1.219,10.438,10.438,0,0,0-3.146,3.543l-.113.17h-.709l-.425-4.507h-2.353v23.64Z" transform="translate(-262.62 -243.237)" fill="#fff"/>
    <path id="Caminho_1723" data-name="Caminho 1723" d="M447.242,254.3v15.788a6.383,6.383,0,0,0,1.361,4.45,5.6,5.6,0,0,0,4.252,1.474c2.551,0,4.393-.709,5.584-2.1s1.757-3.656,1.757-6.8V254.328h3.685v24.32h-3.033l-.539-3.26h-.2a7.425,7.425,0,0,1-3.146,2.749,10.719,10.719,0,0,1-4.592.964c-2.948,0-5.187-.709-6.661-2.1-1.474-1.417-2.211-3.656-2.211-6.746v-15.9h3.742Z" transform="translate(-309.769 -245.315)" fill="#fff"/>
    <path id="Caminho_1724" data-name="Caminho 1724" d="M451.512,278.51c-3.033,0-5.357-.737-6.888-2.211s-2.324-3.827-2.324-7V253h4.45v16.157a6.129,6.129,0,0,0,1.247,4.2,5.133,5.133,0,0,0,3.968,1.361c2.409,0,4.2-.652,5.3-1.956s1.672-3.543,1.672-6.576V253h4.422v25.057h-3.713l-.482-2.92a7.95,7.95,0,0,1-2.92,2.353,10.566,10.566,0,0,1-4.734,1.02m-8.475-24.773V269.3c0,2.976.709,5.159,2.1,6.491s3.543,2.013,6.406,2.013a10.442,10.442,0,0,0,4.422-.907,6.848,6.848,0,0,0,2.976-2.608l.113-.17h.709l.539,3.26h2.381V253.765h-2.948V266.18c0,3.231-.624,5.584-1.842,7.058q-1.871,2.211-5.867,2.211a5.888,5.888,0,0,1-4.507-1.587,6.7,6.7,0,0,1-1.446-4.677v-15.42h-3.033Z" transform="translate(-308.909 -244.383)" fill="#fff"/>
    <path id="Caminho_1725" data-name="Caminho 1725" d="M554.805,270.7a6.152,6.152,0,0,1-2.523,5.244,12,12,0,0,1-7.115,1.842,15.357,15.357,0,0,1-7.54-1.531v-3.43a17.523,17.523,0,0,0,3.77,1.389,15.73,15.73,0,0,0,3.883.51,8.74,8.74,0,0,0,4.45-.935,3.184,3.184,0,0,0,.34-5.244,18.994,18.994,0,0,0-4.819-2.381,25.964,25.964,0,0,1-4.819-2.211,6.152,6.152,0,0,1-2.126-2.154,5.711,5.711,0,0,1-.709-2.863,5.478,5.478,0,0,1,2.409-4.705,11.373,11.373,0,0,1,6.633-1.729,19.727,19.727,0,0,1,7.681,1.587l-1.3,3a17.843,17.843,0,0,0-6.633-1.5,7.63,7.63,0,0,0-3.94.822,2.551,2.551,0,0,0-1.332,2.268,2.727,2.727,0,0,0,.51,1.672,4.906,4.906,0,0,0,1.616,1.3,31.59,31.59,0,0,0,4.252,1.786c2.891,1.049,4.847,2.1,5.839,3.175a6.064,6.064,0,0,1,1.474,4.082" transform="translate(-377.197 -244.025)" fill="#fff"/>
    <path id="Caminho_1726" data-name="Caminho 1726" d="M544.022,277.364a15.906,15.906,0,0,1-7.738-1.587l-.2-.113V271.44l.539.255a17.294,17.294,0,0,0,3.685,1.361,15.034,15.034,0,0,0,3.77.51,8.271,8.271,0,0,0,4.252-.879,2.639,2.639,0,0,0,1.36-2.494,2.712,2.712,0,0,0-1.105-2.154,19.611,19.611,0,0,0-4.705-2.324,29.087,29.087,0,0,1-4.9-2.239,6.816,6.816,0,0,1-2.239-2.268,6.273,6.273,0,0,1,1.842-8.022,11.656,11.656,0,0,1,6.86-1.786,19.834,19.834,0,0,1,7.823,1.616l.34.142-1.587,3.656-.34-.142a17.1,17.1,0,0,0-6.491-1.474,7.352,7.352,0,0,0-3.77.765,2.144,2.144,0,0,0-1.162,1.956,2.422,2.422,0,0,0,.425,1.446,4.58,4.58,0,0,0,1.5,1.219,37.8,37.8,0,0,0,4.223,1.786c2.976,1.077,4.932,2.154,5.981,3.26a6,6,0,0,1,1.616,4.28,6.419,6.419,0,0,1-2.693,5.527c-1.7,1.276-4.167,1.927-7.284,1.927m-7.171-2.126a15.64,15.64,0,0,0,7.171,1.389,11.513,11.513,0,0,0,6.888-1.786,5.651,5.651,0,0,0,2.381-4.932,5.319,5.319,0,0,0-1.417-3.77c-.964-1.02-2.891-2.069-5.7-3.09a34.674,34.674,0,0,1-4.308-1.814,4.991,4.991,0,0,1-1.729-1.417,3.179,3.179,0,0,1-.567-1.871,2.906,2.906,0,0,1,1.5-2.579,7.816,7.816,0,0,1,4.138-.879,17.551,17.551,0,0,1,6.434,1.417l1.02-2.324a19.385,19.385,0,0,0-7.2-1.417,11.193,11.193,0,0,0-6.434,1.644,5.049,5.049,0,0,0-2.268,4.393,5.409,5.409,0,0,0,.652,2.693,6.182,6.182,0,0,0,2.012,2.012,26.291,26.291,0,0,0,4.762,2.183,19.091,19.091,0,0,1,4.9,2.438,3.381,3.381,0,0,1,1.361,2.721,3.423,3.423,0,0,1-1.729,3.118,9.047,9.047,0,0,1-4.62.964,16.392,16.392,0,0,1-3.968-.51,18.359,18.359,0,0,1-3.316-1.162v2.579Z" transform="translate(-376.05 -243.237)" fill="#fff"/>
    <path id="Caminho_1727" data-name="Caminho 1727" d="M619.255,261.681a13.927,13.927,0,0,0,1.9-.142,9.556,9.556,0,0,0,1.446-.312v2.806a7.163,7.163,0,0,1-1.757.482,14.844,14.844,0,0,1-2.1.2c-4.705,0-7.058-2.466-7.058-7.426V242.8H608.2v-1.786l3.486-1.531,1.559-5.187h2.126v5.641h7.058V242.8h-7.058v14.314a4.86,4.86,0,0,0,1.049,3.373,3.4,3.4,0,0,0,2.835,1.19" transform="translate(-427.785 -230.984)" fill="#fff"/>
    <path id="Caminho_1728" data-name="Caminho 1728" d="M617.713,264.251c-4.932,0-7.426-2.636-7.426-7.795V242.34H606.8v-2.381l3.543-1.559,1.587-5.3h2.778v5.641h7.058v3.6h-7.058v13.946a4.467,4.467,0,0,0,.964,3.118,3.235,3.235,0,0,0,2.579,1.049,13.1,13.1,0,0,0,1.842-.142,12.92,12.92,0,0,0,1.389-.283l.453-.142v3.543l-.2.113a7.751,7.751,0,0,1-1.871.51,15.989,15.989,0,0,1-2.154.2M607.537,241.6h3.486v14.824c0,4.762,2.183,7.058,6.689,7.058a14.1,14.1,0,0,0,2.041-.17,7.489,7.489,0,0,0,1.446-.368v-2.1c-.284.057-.624.142-1.02.2a14.425,14.425,0,0,1-1.956.142,3.985,3.985,0,0,1-3.146-1.3,5.253,5.253,0,0,1-1.134-3.628V241.575h7.086v-2.126h-7.058v-5.641h-1.5l-1.531,5.1-3.43,1.5v1.19Z" transform="translate(-426.782 -230.124)" fill="#fff"/>
  </g>
</svg>
